  0
SECTION
  2
BLOCKS
  0
ENDSEC
  0
SECTION
  2
ENTITIES
  0
LINE
  8
0
 10
1.09235
 20
-31.2809
 11
2.18336
 21
-31.2238
  0
LINE
  8
0
 10
2.18336
 20
-31.2238
 11
3.27173
 21
-31.1285
  0
LINE
  8
0
 10
3.27173
 20
-31.1285
 11
4.35611
 21
-30.9954
  0
LINE
  8
0
 10
4.35611
 20
-30.9954
 11
5.43518
 21
-30.8245
  0
LINE
  8
0
 10
5.43518
 20
-30.8245
 11
6.50763
 21
-30.616
  0
LINE
  8
0
 10
6.50763
 20
-30.616
 11
7.57214
 21
-30.3703
  0
LINE
  8
0
 10
7.57214
 20
-30.3703
 11
8.62744
 21
-30.0875
  0
LINE
  8
0
 10
8.62744
 20
-30.0875
 11
9.67223
 21
-29.7681
  0
LINE
  8
0
 10
9.67223
 20
-29.7681
 11
10.7052
 21
-29.4124
  0
LINE
  8
0
 10
10.7052
 20
-29.4124
 11
11.7252
 21
-29.0208
  0
LINE
  8
0
 10
11.7252
 20
-29.0208
 11
12.7309
 21
-28.594
  0
LINE
  8
0
 10
12.7309
 20
-28.594
 11
13.721
 21
-28.1322
  0
LINE
  8
0
 10
13.721
 20
-28.1322
 11
14.6945
 21
-27.6362
  0
LINE
  8
0
 10
14.6945
 20
-27.6362
 11
15.65
 21
-27.1066
  0
LINE
  8
0
 10
15.65
 20
-27.1066
 11
16.5865
 21
-26.5439
  0
LINE
  8
0
 10
16.5865
 20
-26.5439
 11
17.5027
 21
-25.9489
  0
LINE
  8
0
 10
17.5027
 20
-25.9489
 11
18.3977
 21
-25.3222
  0
LINE
  8
0
 10
18.3977
 20
-25.3222
 11
19.2702
 21
-24.6647
  0
LINE
  8
0
 10
19.2702
 20
-24.6647
 11
20.1192
 21
-23.9772
  0
LINE
  8
0
 10
20.1192
 20
-23.9772
 11
20.9438
 21
-23.2604
  0
LINE
  8
0
 10
20.9438
 20
-23.2604
 11
21.7428
 21
-22.5153
  0
LINE
  8
0
 10
21.7428
 20
-22.5153
 11
22.5153
 21
-21.7428
  0
LINE
  8
0
 10
22.5153
 20
-21.7428
 11
23.2604
 21
-20.9438
  0
LINE
  8
0
 10
23.2604
 20
-20.9438
 11
23.9772
 21
-20.1192
  0
LINE
  8
0
 10
23.9772
 20
-20.1192
 11
24.6647
 21
-19.2702
  0
LINE
  8
0
 10
24.6647
 20
-19.2702
 11
25.3222
 21
-18.3977
  0
LINE
  8
0
 10
25.3222
 20
-18.3977
 11
25.9489
 21
-17.5027
  0
LINE
  8
0
 10
25.9489
 20
-17.5027
 11
26.5439
 21
-16.5865
  0
LINE
  8
0
 10
26.5439
 20
-16.5865
 11
27.1066
 21
-15.65
  0
LINE
  8
0
 10
27.1066
 20
-15.65
 11
27.6362
 21
-14.6945
  0
LINE
  8
0
 10
27.6362
 20
-14.6945
 11
28.1322
 21
-13.721
  0
LINE
  8
0
 10
28.1322
 20
-13.721
 11
28.594
 21
-12.7309
  0
LINE
  8
0
 10
28.594
 20
-12.7309
 11
29.0208
 21
-11.7252
  0
LINE
  8
0
 10
29.0208
 20
-11.7252
 11
29.4124
 21
-10.7052
  0
LINE
  8
0
 10
29.4124
 20
-10.7052
 11
29.7681
 21
-9.67223
  0
LINE
  8
0
 10
29.7681
 20
-9.67223
 11
30.0875
 21
-8.62744
  0
LINE
  8
0
 10
30.0875
 20
-8.62744
 11
30.3703
 21
-7.57214
  0
LINE
  8
0
 10
30.3703
 20
-7.57214
 11
30.616
 21
-6.50763
  0
LINE
  8
0
 10
30.616
 20
-6.50763
 11
30.8245
 21
-5.43518
  0
LINE
  8
0
 10
30.8245
 20
-5.43518
 11
30.9954
 21
-4.35611
  0
LINE
  8
0
 10
30.9954
 20
-4.35611
 11
31.1285
 21
-3.27173
  0
LINE
  8
0
 10
31.1285
 20
-3.27173
 11
31.2238
 21
-2.18336
  0
LINE
  8
0
 10
31.2238
 20
-2.18336
 11
31.2809
 21
-1.09235
  0
LINE
  8
0
 10
31.2809
 20
-1.09235
 11
31.3
 21
0
  0
LINE
  8
0
 10
31.3
 20
0
 11
31.2809
 21
1.09235
  0
LINE
  8
0
 10
31.2809
 20
1.09235
 11
31.2238
 21
2.18336
  0
LINE
  8
0
 10
31.2238
 20
2.18336
 11
31.1285
 21
3.27173
  0
LINE
  8
0
 10
31.1285
 20
3.27173
 11
30.9954
 21
4.35611
  0
LINE
  8
0
 10
30.9954
 20
4.35611
 11
30.8245
 21
5.43518
  0
LINE
  8
0
 10
30.8245
 20
5.43518
 11
30.616
 21
6.50763
  0
LINE
  8
0
 10
30.616
 20
6.50763
 11
30.3703
 21
7.57214
  0
LINE
  8
0
 10
30.3703
 20
7.57214
 11
30.0875
 21
8.62744
  0
LINE
  8
0
 10
30.0875
 20
8.62744
 11
29.7681
 21
9.67223
  0
LINE
  8
0
 10
29.7681
 20
9.67223
 11
29.4124
 21
10.7052
  0
LINE
  8
0
 10
29.4124
 20
10.7052
 11
29.0208
 21
11.7252
  0
LINE
  8
0
 10
29.0208
 20
11.7252
 11
28.594
 21
12.7309
  0
LINE
  8
0
 10
28.594
 20
12.7309
 11
28.1322
 21
13.721
  0
LINE
  8
0
 10
28.1322
 20
13.721
 11
27.6362
 21
14.6945
  0
LINE
  8
0
 10
27.6362
 20
14.6945
 11
27.1066
 21
15.65
  0
LINE
  8
0
 10
27.1066
 20
15.65
 11
26.5439
 21
16.5865
  0
LINE
  8
0
 10
26.5439
 20
16.5865
 11
25.9489
 21
17.5027
  0
LINE
  8
0
 10
25.9489
 20
17.5027
 11
25.3222
 21
18.3977
  0
LINE
  8
0
 10
25.3222
 20
18.3977
 11
24.6647
 21
19.2702
  0
LINE
  8
0
 10
24.6647
 20
19.2702
 11
23.9772
 21
20.1192
  0
LINE
  8
0
 10
23.9772
 20
20.1192
 11
23.2604
 21
20.9438
  0
LINE
  8
0
 10
23.2604
 20
20.9438
 11
22.5153
 21
21.7428
  0
LINE
  8
0
 10
22.5153
 20
21.7428
 11
21.7428
 21
22.5153
  0
LINE
  8
0
 10
21.7428
 20
22.5153
 11
20.9438
 21
23.2604
  0
LINE
  8
0
 10
20.9438
 20
23.2604
 11
20.1192
 21
23.9772
  0
LINE
  8
0
 10
20.1192
 20
23.9772
 11
19.2702
 21
24.6647
  0
LINE
  8
0
 10
19.2702
 20
24.6647
 11
18.3977
 21
25.3222
  0
LINE
  8
0
 10
18.3977
 20
25.3222
 11
17.5027
 21
25.9489
  0
LINE
  8
0
 10
17.5027
 20
25.9489
 11
16.5865
 21
26.5439
  0
LINE
  8
0
 10
16.5865
 20
26.5439
 11
15.65
 21
27.1066
  0
LINE
  8
0
 10
15.65
 20
27.1066
 11
14.6945
 21
27.6362
  0
LINE
  8
0
 10
14.6945
 20
27.6362
 11
13.721
 21
28.1322
  0
LINE
  8
0
 10
13.721
 20
28.1322
 11
12.7309
 21
28.594
  0
LINE
  8
0
 10
12.7309
 20
28.594
 11
11.7252
 21
29.0208
  0
LINE
  8
0
 10
11.7252
 20
29.0208
 11
10.7052
 21
29.4124
  0
LINE
  8
0
 10
10.7052
 20
29.4124
 11
9.67223
 21
29.7681
  0
LINE
  8
0
 10
9.67223
 20
29.7681
 11
8.62744
 21
30.0875
  0
LINE
  8
0
 10
8.62744
 20
30.0875
 11
7.57214
 21
30.3703
  0
LINE
  8
0
 10
7.57214
 20
30.3703
 11
6.50763
 21
30.616
  0
LINE
  8
0
 10
6.50763
 20
30.616
 11
5.43518
 21
30.8245
  0
LINE
  8
0
 10
5.43518
 20
30.8245
 11
4.35611
 21
30.9954
  0
LINE
  8
0
 10
4.35611
 20
30.9954
 11
3.27173
 21
31.1285
  0
LINE
  8
0
 10
3.27173
 20
31.1285
 11
2.18336
 21
31.2238
  0
LINE
  8
0
 10
2.18336
 20
31.2238
 11
1.09235
 21
31.2809
  0
LINE
  8
0
 10
1.09235
 20
31.2809
 11
0
 21
31.3
  0
LINE
  8
0
 10
0
 20
31.3
 11
-1.09235
 21
31.2809
  0
LINE
  8
0
 10
-1.09235
 20
31.2809
 11
-2.18336
 21
31.2238
  0
LINE
  8
0
 10
-2.18336
 20
31.2238
 11
-3.27173
 21
31.1285
  0
LINE
  8
0
 10
-3.27173
 20
31.1285
 11
-4.35611
 21
30.9954
  0
LINE
  8
0
 10
-4.35611
 20
30.9954
 11
-5.43518
 21
30.8245
  0
LINE
  8
0
 10
-5.43518
 20
30.8245
 11
-6.50763
 21
30.616
  0
LINE
  8
0
 10
-6.50763
 20
30.616
 11
-7.57214
 21
30.3703
  0
LINE
  8
0
 10
-7.57214
 20
30.3703
 11
-8.62744
 21
30.0875
  0
LINE
  8
0
 10
-8.62744
 20
30.0875
 11
-9.67223
 21
29.7681
  0
LINE
  8
0
 10
-9.67223
 20
29.7681
 11
-10.7052
 21
29.4124
  0
LINE
  8
0
 10
-10.7052
 20
29.4124
 11
-11.7252
 21
29.0208
  0
LINE
  8
0
 10
-11.7252
 20
29.0208
 11
-12.7309
 21
28.594
  0
LINE
  8
0
 10
-12.7309
 20
28.594
 11
-13.721
 21
28.1322
  0
LINE
  8
0
 10
-13.721
 20
28.1322
 11
-14.6945
 21
27.6362
  0
LINE
  8
0
 10
-14.6945
 20
27.6362
 11
-15.65
 21
27.1066
  0
LINE
  8
0
 10
-15.65
 20
27.1066
 11
-16.5865
 21
26.5439
  0
LINE
  8
0
 10
-16.5865
 20
26.5439
 11
-17.5027
 21
25.9489
  0
LINE
  8
0
 10
-17.5027
 20
25.9489
 11
-18.3977
 21
25.3222
  0
LINE
  8
0
 10
-18.3977
 20
25.3222
 11
-19.2702
 21
24.6647
  0
LINE
  8
0
 10
-19.2702
 20
24.6647
 11
-20.1192
 21
23.9772
  0
LINE
  8
0
 10
-20.1192
 20
23.9772
 11
-20.9438
 21
23.2604
  0
LINE
  8
0
 10
-20.9438
 20
23.2604
 11
-21.7428
 21
22.5153
  0
LINE
  8
0
 10
-21.7428
 20
22.5153
 11
-22.5153
 21
21.7428
  0
LINE
  8
0
 10
-22.5153
 20
21.7428
 11
-23.2604
 21
20.9438
  0
LINE
  8
0
 10
-23.2604
 20
20.9438
 11
-23.9772
 21
20.1192
  0
LINE
  8
0
 10
-23.9772
 20
20.1192
 11
-24.6647
 21
19.2702
  0
LINE
  8
0
 10
-24.6647
 20
19.2702
 11
-25.3222
 21
18.3977
  0
LINE
  8
0
 10
-25.3222
 20
18.3977
 11
-25.9489
 21
17.5027
  0
LINE
  8
0
 10
-25.9489
 20
17.5027
 11
-26.5439
 21
16.5865
  0
LINE
  8
0
 10
-26.5439
 20
16.5865
 11
-27.1066
 21
15.65
  0
LINE
  8
0
 10
-27.1066
 20
15.65
 11
-27.6362
 21
14.6945
  0
LINE
  8
0
 10
-27.6362
 20
14.6945
 11
-28.1322
 21
13.721
  0
LINE
  8
0
 10
-28.1322
 20
13.721
 11
-28.594
 21
12.7309
  0
LINE
  8
0
 10
-28.594
 20
12.7309
 11
-29.0208
 21
11.7252
  0
LINE
  8
0
 10
-29.0208
 20
11.7252
 11
-29.4124
 21
10.7052
  0
LINE
  8
0
 10
-29.4124
 20
10.7052
 11
-29.7681
 21
9.67223
  0
LINE
  8
0
 10
-29.7681
 20
9.67223
 11
-30.0875
 21
8.62744
  0
LINE
  8
0
 10
-30.0875
 20
8.62744
 11
-30.3703
 21
7.57214
  0
LINE
  8
0
 10
-30.3703
 20
7.57214
 11
-30.616
 21
6.50763
  0
LINE
  8
0
 10
-30.616
 20
6.50763
 11
-30.8245
 21
5.43518
  0
LINE
  8
0
 10
-30.8245
 20
5.43518
 11
-30.9954
 21
4.35611
  0
LINE
  8
0
 10
-30.9954
 20
4.35611
 11
-31.1285
 21
3.27173
  0
LINE
  8
0
 10
-31.1285
 20
3.27173
 11
-31.2238
 21
2.18336
  0
LINE
  8
0
 10
-31.2238
 20
2.18336
 11
-31.2809
 21
1.09235
  0
LINE
  8
0
 10
-31.2809
 20
1.09235
 11
-31.3
 21
0
  0
LINE
  8
0
 10
-31.3
 20
0
 11
-31.2809
 21
-1.09235
  0
LINE
  8
0
 10
-31.2809
 20
-1.09235
 11
-31.2238
 21
-2.18336
  0
LINE
  8
0
 10
-31.2238
 20
-2.18336
 11
-31.1285
 21
-3.27173
  0
LINE
  8
0
 10
-31.1285
 20
-3.27173
 11
-30.9954
 21
-4.35611
  0
LINE
  8
0
 10
-30.9954
 20
-4.35611
 11
-30.8245
 21
-5.43518
  0
LINE
  8
0
 10
-30.8245
 20
-5.43518
 11
-30.616
 21
-6.50763
  0
LINE
  8
0
 10
-30.616
 20
-6.50763
 11
-30.3703
 21
-7.57214
  0
LINE
  8
0
 10
-30.3703
 20
-7.57214
 11
-30.0875
 21
-8.62744
  0
LINE
  8
0
 10
-30.0875
 20
-8.62744
 11
-29.7681
 21
-9.67223
  0
LINE
  8
0
 10
-29.7681
 20
-9.67223
 11
-29.4124
 21
-10.7052
  0
LINE
  8
0
 10
-29.4124
 20
-10.7052
 11
-29.0208
 21
-11.7252
  0
LINE
  8
0
 10
-29.0208
 20
-11.7252
 11
-28.594
 21
-12.7309
  0
LINE
  8
0
 10
-28.594
 20
-12.7309
 11
-28.1322
 21
-13.721
  0
LINE
  8
0
 10
-28.1322
 20
-13.721
 11
-27.6362
 21
-14.6945
  0
LINE
  8
0
 10
-27.6362
 20
-14.6945
 11
-27.1066
 21
-15.65
  0
LINE
  8
0
 10
-27.1066
 20
-15.65
 11
-26.5439
 21
-16.5865
  0
LINE
  8
0
 10
-26.5439
 20
-16.5865
 11
-25.9489
 21
-17.5027
  0
LINE
  8
0
 10
-25.9489
 20
-17.5027
 11
-25.3222
 21
-18.3977
  0
LINE
  8
0
 10
-25.3222
 20
-18.3977
 11
-24.6647
 21
-19.2702
  0
LINE
  8
0
 10
-24.6647
 20
-19.2702
 11
-23.9772
 21
-20.1192
  0
LINE
  8
0
 10
-23.9772
 20
-20.1192
 11
-23.2604
 21
-20.9438
  0
LINE
  8
0
 10
-23.2604
 20
-20.9438
 11
-22.5153
 21
-21.7428
  0
LINE
  8
0
 10
-22.5153
 20
-21.7428
 11
-21.7428
 21
-22.5153
  0
LINE
  8
0
 10
-21.7428
 20
-22.5153
 11
-20.9438
 21
-23.2604
  0
LINE
  8
0
 10
-20.9438
 20
-23.2604
 11
-20.1192
 21
-23.9772
  0
LINE
  8
0
 10
-20.1192
 20
-23.9772
 11
-19.2702
 21
-24.6647
  0
LINE
  8
0
 10
-19.2702
 20
-24.6647
 11
-18.3977
 21
-25.3222
  0
LINE
  8
0
 10
-18.3977
 20
-25.3222
 11
-17.5027
 21
-25.9489
  0
LINE
  8
0
 10
-17.5027
 20
-25.9489
 11
-16.5865
 21
-26.5439
  0
LINE
  8
0
 10
-16.5865
 20
-26.5439
 11
-15.65
 21
-27.1066
  0
LINE
  8
0
 10
-15.65
 20
-27.1066
 11
-14.6945
 21
-27.6362
  0
LINE
  8
0
 10
-14.6945
 20
-27.6362
 11
-13.721
 21
-28.1322
  0
LINE
  8
0
 10
-13.721
 20
-28.1322
 11
-12.7309
 21
-28.594
  0
LINE
  8
0
 10
-12.7309
 20
-28.594
 11
-11.7252
 21
-29.0208
  0
LINE
  8
0
 10
-11.7252
 20
-29.0208
 11
-10.7052
 21
-29.4124
  0
LINE
  8
0
 10
-10.7052
 20
-29.4124
 11
-9.67223
 21
-29.7681
  0
LINE
  8
0
 10
-9.67223
 20
-29.7681
 11
-8.62744
 21
-30.0875
  0
LINE
  8
0
 10
-8.62744
 20
-30.0875
 11
-7.57214
 21
-30.3703
  0
LINE
  8
0
 10
-7.57214
 20
-30.3703
 11
-6.50763
 21
-30.616
  0
LINE
  8
0
 10
-6.50763
 20
-30.616
 11
-5.43518
 21
-30.8245
  0
LINE
  8
0
 10
-5.43518
 20
-30.8245
 11
-4.35611
 21
-30.9954
  0
LINE
  8
0
 10
-4.35611
 20
-30.9954
 11
-3.27173
 21
-31.1285
  0
LINE
  8
0
 10
-3.27173
 20
-31.1285
 11
-2.18336
 21
-31.2238
  0
LINE
  8
0
 10
-2.18336
 20
-31.2238
 11
-1.09235
 21
-31.2809
  0
LINE
  8
0
 10
-1.09235
 20
-31.2809
 11
0
 21
-31.3
  0
LINE
  8
0
 10
0
 20
-31.3
 11
1.09235
 21
-31.2809
  0
LINE
  8
0
 10
-10.2245
 20
16.9081
 11
-10.5219
 21
16.9442
  0
LINE
  8
0
 10
-10.5219
 20
16.9442
 11
-10.8144
 21
17.0089
  0
LINE
  8
0
 10
-10.8144
 20
17.0089
 11
-11.0993
 21
17.1014
  0
LINE
  8
0
 10
-11.0993
 20
17.1014
 11
-11.3739
 21
17.2211
  0
LINE
  8
0
 10
-11.3739
 20
17.2211
 11
-11.6357
 21
17.3666
  0
LINE
  8
0
 10
-11.6357
 20
17.3666
 11
-11.8822
 21
17.5368
  0
LINE
  8
0
 10
-11.8822
 20
17.5368
 11
-12.1111
 21
17.73
  0
LINE
  8
0
 10
-12.1111
 20
17.73
 11
-12.3204
 21
17.9443
  0
LINE
  8
0
 10
-12.3204
 20
17.9443
 11
-12.5079
 21
18.1779
  0
LINE
  8
0
 10
-12.5079
 20
18.1779
 11
-12.6721
 21
18.4284
  0
LINE
  8
0
 10
-12.6721
 20
18.4284
 11
-12.8113
 21
18.6936
  0
LINE
  8
0
 10
-12.8113
 20
18.6936
 11
-12.9243
 21
18.9711
  0
LINE
  8
0
 10
-12.9243
 20
18.9711
 11
-13.0099
 21
19.2581
  0
LINE
  8
0
 10
-13.0099
 20
19.2581
 11
-13.0675
 21
19.5521
  0
LINE
  8
0
 10
-13.0675
 20
19.5521
 11
-13.0964
 21
19.8502
  0
LINE
  8
0
 10
-13.0964
 20
19.8502
 11
-13.0964
 21
20.1498
  0
LINE
  8
0
 10
-13.0964
 20
20.1498
 11
-13.0675
 21
20.4479
  0
LINE
  8
0
 10
-13.0675
 20
20.4479
 11
-13.0099
 21
20.7419
  0
LINE
  8
0
 10
-13.0099
 20
20.7419
 11
-12.9243
 21
21.0289
  0
LINE
  8
0
 10
-12.9243
 20
21.0289
 11
-12.8113
 21
21.3063
  0
LINE
  8
0
 10
-12.8113
 20
21.3063
 11
-12.6721
 21
21.5716
  0
LINE
  8
0
 10
-12.6721
 20
21.5716
 11
-12.5079
 21
21.8221
  0
LINE
  8
0
 10
-12.5079
 20
21.8221
 11
-12.3204
 21
22.0557
  0
LINE
  8
0
 10
-12.3204
 20
22.0557
 11
-12.1111
 21
22.27
  0
LINE
  8
0
 10
-12.1111
 20
22.27
 11
-11.8822
 21
22.4632
  0
LINE
  8
0
 10
-11.8822
 20
22.4632
 11
-11.6357
 21
22.6333
  0
LINE
  8
0
 10
-11.6357
 20
22.6333
 11
-11.3739
 21
22.7789
  0
LINE
  8
0
 10
-11.3739
 20
22.7789
 11
-11.0993
 21
22.8985
  0
LINE
  8
0
 10
-11.0993
 20
22.8985
 11
-10.8144
 21
22.9911
  0
LINE
  8
0
 10
-10.8144
 20
22.9911
 11
-10.5219
 21
23.0557
  0
LINE
  8
0
 10
-10.5219
 20
23.0557
 11
-10.2245
 21
23.0918
  0
LINE
  8
0
 10
-10.2245
 20
23.0918
 11
-9.92508
 21
23.0991
  0
LINE
  8
0
 10
-9.92508
 20
23.0991
 11
-9.62633
 21
23.0774
  0
LINE
  8
0
 10
-9.62633
 20
23.0774
 11
-9.33105
 21
23.027
  0
LINE
  8
0
 10
-9.33105
 20
23.027
 11
-9.04204
 21
22.9483
  0
LINE
  8
0
 10
-9.04204
 20
22.9483
 11
-8.76196
 21
22.8421
  0
LINE
  8
0
 10
-8.76196
 20
22.8421
 11
-8.49344
 21
22.7093
  0
LINE
  8
0
 10
-8.49344
 20
22.7093
 11
-8.239
 21
22.5512
  0
LINE
  8
0
 10
-8.239
 20
22.5512
 11
-8.00098
 21
22.3694
  0
LINE
  8
0
 10
-8.00098
 20
22.3694
 11
-7.78163
 21
22.1654
  0
LINE
  8
0
 10
-7.78163
 20
22.1654
 11
-7.58301
 21
21.9412
  0
LINE
  8
0
 10
-7.58301
 20
21.9412
 11
-7.40694
 21
21.6988
  0
LINE
  8
0
 10
-7.40694
 20
21.6988
 11
-7.25508
 21
21.4406
  0
LINE
  8
0
 10
-7.25508
 20
21.4406
 11
-7.12885
 21
21.169
  0
LINE
  8
0
 10
-7.12885
 20
21.169
 11
-7.02943
 21
20.8864
  0
LINE
  8
0
 10
-7.02943
 20
20.8864
 11
-6.95775
 21
20.5956
  0
LINE
  8
0
 10
-6.95775
 20
20.5956
 11
-6.91446
 21
20.2992
  0
LINE
  8
0
 10
-6.91446
 20
20.2992
 11
-6.89999
 21
20
  0
LINE
  8
0
 10
-6.89999
 20
20
 11
-6.91446
 21
19.7008
  0
LINE
  8
0
 10
-6.91446
 20
19.7008
 11
-6.95775
 21
19.4044
  0
LINE
  8
0
 10
-6.95775
 20
19.4044
 11
-7.02943
 21
19.1136
  0
LINE
  8
0
 10
-7.02943
 20
19.1136
 11
-7.12885
 21
18.831
  0
LINE
  8
0
 10
-7.12885
 20
18.831
 11
-7.25508
 21
18.5594
  0
LINE
  8
0
 10
-7.25508
 20
18.5594
 11
-7.40694
 21
18.3011
  0
LINE
  8
0
 10
-7.40694
 20
18.3011
 11
-7.58301
 21
18.0588
  0
LINE
  8
0
 10
-7.58301
 20
18.0588
 11
-7.78163
 21
17.8346
  0
LINE
  8
0
 10
-7.78163
 20
17.8346
 11
-8.00098
 21
17.6306
  0
LINE
  8
0
 10
-8.00098
 20
17.6306
 11
-8.239
 21
17.4487
  0
LINE
  8
0
 10
-8.239
 20
17.4487
 11
-8.49344
 21
17.2907
  0
LINE
  8
0
 10
-8.49344
 20
17.2907
 11
-8.76196
 21
17.1579
  0
LINE
  8
0
 10
-8.76196
 20
17.1579
 11
-9.04204
 21
17.0517
  0
LINE
  8
0
 10
-9.04204
 20
17.0517
 11
-9.33105
 21
16.973
  0
LINE
  8
0
 10
-9.33105
 20
16.973
 11
-9.62633
 21
16.9226
  0
LINE
  8
0
 10
-9.62633
 20
16.9226
 11
-9.92508
 21
16.9009
  0
LINE
  8
0
 10
-9.92508
 20
16.9009
 11
-10.2245
 21
16.9081
  0
LINE
  8
0
 10
-21
 20
-12
 11
-21
 21
12
  0
LINE
  8
0
 10
-21
 20
12
 11
-15
 21
12
  0
LINE
  8
0
 10
-15
 20
12
 11
-15
 21
-12
  0
LINE
  8
0
 10
-15
 20
-12
 11
-21
 21
-12
  0
LINE
  8
0
 10
6.77747
 20
9.52507
 11
6.5
 21
9.63397
  0
LINE
  8
0
 10
6.5
 20
9.63397
 11
6.26694
 21
9.81982
  0
LINE
  8
0
 10
6.26694
 20
9.81982
 11
6.09903
 21
10.0661
  0
LINE
  8
0
 10
6.09903
 20
10.0661
 11
6.01115
 21
10.351
  0
LINE
  8
0
 10
6.01115
 20
10.351
 11
6.01115
 21
10.649
  0
LINE
  8
0
 10
6.01115
 20
10.649
 11
6.09903
 21
10.9339
  0
LINE
  8
0
 10
6.09903
 20
10.9339
 11
6.26694
 21
11.1802
  0
LINE
  8
0
 10
6.26694
 20
11.1802
 11
6.5
 21
11.366
  0
LINE
  8
0
 10
6.5
 20
11.366
 11
6.77747
 21
11.4749
  0
LINE
  8
0
 10
6.77747
 20
11.4749
 11
7.07472
 21
11.4972
  0
LINE
  8
0
 10
7.07472
 20
11.4972
 11
7.36533
 21
11.4309
  0
LINE
  8
0
 10
7.36533
 20
11.4309
 11
7.62349
 21
11.2818
  0
LINE
  8
0
 10
7.62349
 20
11.2818
 11
7.82623
 21
11.0633
  0
LINE
  8
0
 10
7.82623
 20
11.0633
 11
7.95557
 21
10.7948
  0
LINE
  8
0
 10
7.95557
 20
10.7948
 11
8
 21
10.5
  0
LINE
  8
0
 10
8
 20
10.5
 11
7.95557
 21
10.2052
  0
LINE
  8
0
 10
7.95557
 20
10.2052
 11
7.82623
 21
9.93668
  0
LINE
  8
0
 10
7.82623
 20
9.93668
 11
7.62349
 21
9.71815
  0
LINE
  8
0
 10
7.62349
 20
9.71815
 11
7.36533
 21
9.56912
  0
LINE
  8
0
 10
7.36533
 20
9.56912
 11
7.07472
 21
9.50279
  0
LINE
  8
0
 10
7.07472
 20
9.50279
 11
6.77747
 21
9.52507
  0
LINE
  8
0
 10
-7.22252
 20
9.52507
 11
-7.5
 21
9.63397
  0
LINE
  8
0
 10
-7.5
 20
9.63397
 11
-7.73305
 21
9.81982
  0
LINE
  8
0
 10
-7.73305
 20
9.81982
 11
-7.90096
 21
10.0661
  0
LINE
  8
0
 10
-7.90096
 20
10.0661
 11
-7.98883
 21
10.351
  0
LINE
  8
0
 10
-7.98883
 20
10.351
 11
-7.98883
 21
10.649
  0
LINE
  8
0
 10
-7.98883
 20
10.649
 11
-7.90096
 21
10.9339
  0
LINE
  8
0
 10
-7.90096
 20
10.9339
 11
-7.73305
 21
11.1802
  0
LINE
  8
0
 10
-7.73305
 20
11.1802
 11
-7.5
 21
11.366
  0
LINE
  8
0
 10
-7.5
 20
11.366
 11
-7.22252
 21
11.4749
  0
LINE
  8
0
 10
-7.22252
 20
11.4749
 11
-6.92526
 21
11.4972
  0
LINE
  8
0
 10
-6.92526
 20
11.4972
 11
-6.63466
 21
11.4309
  0
LINE
  8
0
 10
-6.63466
 20
11.4309
 11
-6.3765
 21
11.2818
  0
LINE
  8
0
 10
-6.3765
 20
11.2818
 11
-6.17375
 21
11.0633
  0
LINE
  8
0
 10
-6.17375
 20
11.0633
 11
-6.04442
 21
10.7948
  0
LINE
  8
0
 10
-6.04442
 20
10.7948
 11
-6
 21
10.5
  0
LINE
  8
0
 10
-6
 20
10.5
 11
-6.04442
 21
10.2052
  0
LINE
  8
0
 10
-6.04442
 20
10.2052
 11
-6.17375
 21
9.93668
  0
LINE
  8
0
 10
-6.17375
 20
9.93668
 11
-6.3765
 21
9.71815
  0
LINE
  8
0
 10
-6.3765
 20
9.71815
 11
-6.63466
 21
9.56912
  0
LINE
  8
0
 10
-6.63466
 20
9.56912
 11
-6.92526
 21
9.50279
  0
LINE
  8
0
 10
-6.92526
 20
9.50279
 11
-7.22252
 21
9.52507
  0
LINE
  8
0
 10
-7.22252
 20
-11.4749
 11
-7.5
 21
-11.366
  0
LINE
  8
0
 10
-7.5
 20
-11.366
 11
-7.73305
 21
-11.1802
  0
LINE
  8
0
 10
-7.73305
 20
-11.1802
 11
-7.90096
 21
-10.9339
  0
LINE
  8
0
 10
-7.90096
 20
-10.9339
 11
-7.98883
 21
-10.649
  0
LINE
  8
0
 10
-7.98883
 20
-10.649
 11
-7.98883
 21
-10.351
  0
LINE
  8
0
 10
-7.98883
 20
-10.351
 11
-7.90096
 21
-10.0661
  0
LINE
  8
0
 10
-7.90096
 20
-10.0661
 11
-7.73305
 21
-9.81982
  0
LINE
  8
0
 10
-7.73305
 20
-9.81982
 11
-7.5
 21
-9.63397
  0
LINE
  8
0
 10
-7.5
 20
-9.63397
 11
-7.22252
 21
-9.52507
  0
LINE
  8
0
 10
-7.22252
 20
-9.52507
 11
-6.92526
 21
-9.50279
  0
LINE
  8
0
 10
-6.92526
 20
-9.50279
 11
-6.63466
 21
-9.56912
  0
LINE
  8
0
 10
-6.63466
 20
-9.56912
 11
-6.3765
 21
-9.71815
  0
LINE
  8
0
 10
-6.3765
 20
-9.71815
 11
-6.17375
 21
-9.93668
  0
LINE
  8
0
 10
-6.17375
 20
-9.93668
 11
-6.04442
 21
-10.2052
  0
LINE
  8
0
 10
-6.04442
 20
-10.2052
 11
-6
 21
-10.5
  0
LINE
  8
0
 10
-6
 20
-10.5
 11
-6.04442
 21
-10.7948
  0
LINE
  8
0
 10
-6.04442
 20
-10.7948
 11
-6.17375
 21
-11.0633
  0
LINE
  8
0
 10
-6.17375
 20
-11.0633
 11
-6.3765
 21
-11.2818
  0
LINE
  8
0
 10
-6.3765
 20
-11.2818
 11
-6.63466
 21
-11.4309
  0
LINE
  8
0
 10
-6.63466
 20
-11.4309
 11
-6.92526
 21
-11.4972
  0
LINE
  8
0
 10
-6.92526
 20
-11.4972
 11
-7.22252
 21
-11.4749
  0
LINE
  8
0
 10
6.77747
 20
-11.4749
 11
6.5
 21
-11.366
  0
LINE
  8
0
 10
6.5
 20
-11.366
 11
6.26694
 21
-11.1802
  0
LINE
  8
0
 10
6.26694
 20
-11.1802
 11
6.09903
 21
-10.9339
  0
LINE
  8
0
 10
6.09903
 20
-10.9339
 11
6.01115
 21
-10.649
  0
LINE
  8
0
 10
6.01115
 20
-10.649
 11
6.01115
 21
-10.351
  0
LINE
  8
0
 10
6.01115
 20
-10.351
 11
6.09903
 21
-10.0661
  0
LINE
  8
0
 10
6.09903
 20
-10.0661
 11
6.26694
 21
-9.81982
  0
LINE
  8
0
 10
6.26694
 20
-9.81982
 11
6.5
 21
-9.63397
  0
LINE
  8
0
 10
6.5
 20
-9.63397
 11
6.77747
 21
-9.52507
  0
LINE
  8
0
 10
6.77747
 20
-9.52507
 11
7.07472
 21
-9.50279
  0
LINE
  8
0
 10
7.07472
 20
-9.50279
 11
7.36533
 21
-9.56912
  0
LINE
  8
0
 10
7.36533
 20
-9.56912
 11
7.62349
 21
-9.71815
  0
LINE
  8
0
 10
7.62349
 20
-9.71815
 11
7.82623
 21
-9.93668
  0
LINE
  8
0
 10
7.82623
 20
-9.93668
 11
7.95557
 21
-10.2052
  0
LINE
  8
0
 10
7.95557
 20
-10.2052
 11
8
 21
-10.5
  0
LINE
  8
0
 10
8
 20
-10.5
 11
7.95557
 21
-10.7948
  0
LINE
  8
0
 10
7.95557
 20
-10.7948
 11
7.82623
 21
-11.0633
  0
LINE
  8
0
 10
7.82623
 20
-11.0633
 11
7.62349
 21
-11.2818
  0
LINE
  8
0
 10
7.62349
 20
-11.2818
 11
7.36533
 21
-11.4309
  0
LINE
  8
0
 10
7.36533
 20
-11.4309
 11
7.07472
 21
-11.4972
  0
LINE
  8
0
 10
7.07472
 20
-11.4972
 11
6.77747
 21
-11.4749
  0
LINE
  8
0
 10
-10.2245
 20
-23.0918
 11
-10.5219
 21
-23.0557
  0
LINE
  8
0
 10
-10.5219
 20
-23.0557
 11
-10.8144
 21
-22.9911
  0
LINE
  8
0
 10
-10.8144
 20
-22.9911
 11
-11.0993
 21
-22.8985
  0
LINE
  8
0
 10
-11.0993
 20
-22.8985
 11
-11.3739
 21
-22.7789
  0
LINE
  8
0
 10
-11.3739
 20
-22.7789
 11
-11.6357
 21
-22.6333
  0
LINE
  8
0
 10
-11.6357
 20
-22.6333
 11
-11.8822
 21
-22.4632
  0
LINE
  8
0
 10
-11.8822
 20
-22.4632
 11
-12.1111
 21
-22.27
  0
LINE
  8
0
 10
-12.1111
 20
-22.27
 11
-12.3204
 21
-22.0557
  0
LINE
  8
0
 10
-12.3204
 20
-22.0557
 11
-12.5079
 21
-21.8221
  0
LINE
  8
0
 10
-12.5079
 20
-21.8221
 11
-12.6721
 21
-21.5716
  0
LINE
  8
0
 10
-12.6721
 20
-21.5716
 11
-12.8113
 21
-21.3063
  0
LINE
  8
0
 10
-12.8113
 20
-21.3063
 11
-12.9243
 21
-21.0289
  0
LINE
  8
0
 10
-12.9243
 20
-21.0289
 11
-13.0099
 21
-20.7419
  0
LINE
  8
0
 10
-13.0099
 20
-20.7419
 11
-13.0675
 21
-20.4479
  0
LINE
  8
0
 10
-13.0675
 20
-20.4479
 11
-13.0964
 21
-20.1498
  0
LINE
  8
0
 10
-13.0964
 20
-20.1498
 11
-13.0964
 21
-19.8502
  0
LINE
  8
0
 10
-13.0964
 20
-19.8502
 11
-13.0675
 21
-19.5521
  0
LINE
  8
0
 10
-13.0675
 20
-19.5521
 11
-13.0099
 21
-19.2581
  0
LINE
  8
0
 10
-13.0099
 20
-19.2581
 11
-12.9243
 21
-18.9711
  0
LINE
  8
0
 10
-12.9243
 20
-18.9711
 11
-12.8113
 21
-18.6936
  0
LINE
  8
0
 10
-12.8113
 20
-18.6936
 11
-12.6721
 21
-18.4284
  0
LINE
  8
0
 10
-12.6721
 20
-18.4284
 11
-12.5079
 21
-18.1779
  0
LINE
  8
0
 10
-12.5079
 20
-18.1779
 11
-12.3204
 21
-17.9443
  0
LINE
  8
0
 10
-12.3204
 20
-17.9443
 11
-12.1111
 21
-17.73
  0
LINE
  8
0
 10
-12.1111
 20
-17.73
 11
-11.8822
 21
-17.5368
  0
LINE
  8
0
 10
-11.8822
 20
-17.5368
 11
-11.6357
 21
-17.3666
  0
LINE
  8
0
 10
-11.6357
 20
-17.3666
 11
-11.3739
 21
-17.2211
  0
LINE
  8
0
 10
-11.3739
 20
-17.2211
 11
-11.0993
 21
-17.1014
  0
LINE
  8
0
 10
-11.0993
 20
-17.1014
 11
-10.8144
 21
-17.0089
  0
LINE
  8
0
 10
-10.8144
 20
-17.0089
 11
-10.5219
 21
-16.9442
  0
LINE
  8
0
 10
-10.5219
 20
-16.9442
 11
-10.2245
 21
-16.9081
  0
LINE
  8
0
 10
-10.2245
 20
-16.9081
 11
-9.92508
 21
-16.9009
  0
LINE
  8
0
 10
-9.92508
 20
-16.9009
 11
-9.62633
 21
-16.9226
  0
LINE
  8
0
 10
-9.62633
 20
-16.9226
 11
-9.33105
 21
-16.973
  0
LINE
  8
0
 10
-9.33105
 20
-16.973
 11
-9.04204
 21
-17.0517
  0
LINE
  8
0
 10
-9.04204
 20
-17.0517
 11
-8.76196
 21
-17.1579
  0
LINE
  8
0
 10
-8.76196
 20
-17.1579
 11
-8.49344
 21
-17.2907
  0
LINE
  8
0
 10
-8.49344
 20
-17.2907
 11
-8.239
 21
-17.4487
  0
LINE
  8
0
 10
-8.239
 20
-17.4487
 11
-8.00098
 21
-17.6306
  0
LINE
  8
0
 10
-8.00098
 20
-17.6306
 11
-7.78163
 21
-17.8346
  0
LINE
  8
0
 10
-7.78163
 20
-17.8346
 11
-7.58301
 21
-18.0588
  0
LINE
  8
0
 10
-7.58301
 20
-18.0588
 11
-7.40694
 21
-18.3011
  0
LINE
  8
0
 10
-7.40694
 20
-18.3011
 11
-7.25508
 21
-18.5594
  0
LINE
  8
0
 10
-7.25508
 20
-18.5594
 11
-7.12885
 21
-18.831
  0
LINE
  8
0
 10
-7.12885
 20
-18.831
 11
-7.02943
 21
-19.1136
  0
LINE
  8
0
 10
-7.02943
 20
-19.1136
 11
-6.95775
 21
-19.4044
  0
LINE
  8
0
 10
-6.95775
 20
-19.4044
 11
-6.91446
 21
-19.7008
  0
LINE
  8
0
 10
-6.91446
 20
-19.7008
 11
-6.89999
 21
-20
  0
LINE
  8
0
 10
-6.89999
 20
-20
 11
-6.91446
 21
-20.2992
  0
LINE
  8
0
 10
-6.91446
 20
-20.2992
 11
-6.95775
 21
-20.5956
  0
LINE
  8
0
 10
-6.95775
 20
-20.5956
 11
-7.02943
 21
-20.8864
  0
LINE
  8
0
 10
-7.02943
 20
-20.8864
 11
-7.12885
 21
-21.169
  0
LINE
  8
0
 10
-7.12885
 20
-21.169
 11
-7.25508
 21
-21.4406
  0
LINE
  8
0
 10
-7.25508
 20
-21.4406
 11
-7.40694
 21
-21.6988
  0
LINE
  8
0
 10
-7.40694
 20
-21.6988
 11
-7.58301
 21
-21.9412
  0
LINE
  8
0
 10
-7.58301
 20
-21.9412
 11
-7.78163
 21
-22.1654
  0
LINE
  8
0
 10
-7.78163
 20
-22.1654
 11
-8.00098
 21
-22.3694
  0
LINE
  8
0
 10
-8.00098
 20
-22.3694
 11
-8.239
 21
-22.5512
  0
LINE
  8
0
 10
-8.239
 20
-22.5512
 11
-8.49344
 21
-22.7093
  0
LINE
  8
0
 10
-8.49344
 20
-22.7093
 11
-8.76196
 21
-22.8421
  0
LINE
  8
0
 10
-8.76196
 20
-22.8421
 11
-9.04204
 21
-22.9483
  0
LINE
  8
0
 10
-9.04204
 20
-22.9483
 11
-9.33105
 21
-23.027
  0
LINE
  8
0
 10
-9.33105
 20
-23.027
 11
-9.62633
 21
-23.0774
  0
LINE
  8
0
 10
-9.62633
 20
-23.0774
 11
-9.92508
 21
-23.0991
  0
LINE
  8
0
 10
-9.92508
 20
-23.0991
 11
-10.2245
 21
-23.0918
  0
ENDSEC
  0
SECTION
  2
OBJECTS
  0
DICTIONARY
  0
ENDSEC
  0
EOF
