  0
SECTION
  2
BLOCKS
  0
ENDSEC
  0
SECTION
  2
ENTITIES
  0
LINE
  8
0
 10
1.31744
 20
-37.727
 11
2.6333
 21
-37.658
  0
LINE
  8
0
 10
2.6333
 20
-37.658
 11
3.94594
 21
-37.5432
  0
LINE
  8
0
 10
3.94594
 20
-37.5432
 11
5.25378
 21
-37.3826
  0
LINE
  8
0
 10
5.25378
 20
-37.3826
 11
6.55521
 21
-37.1765
  0
LINE
  8
0
 10
6.55521
 20
-37.1765
 11
7.84866
 21
-36.9251
  0
LINE
  8
0
 10
7.84866
 20
-36.9251
 11
9.13254
 21
-36.6287
  0
LINE
  8
0
 10
9.13254
 20
-36.6287
 11
10.4053
 21
-36.2876
  0
LINE
  8
0
 10
10.4053
 20
-36.2876
 11
11.6654
 21
-35.9024
  0
LINE
  8
0
 10
11.6654
 20
-35.9024
 11
12.9113
 21
-35.4734
  0
LINE
  8
0
 10
12.9113
 20
-35.4734
 11
14.1414
 21
-35.0012
  0
LINE
  8
0
 10
14.1414
 20
-35.0012
 11
15.3543
 21
-34.4863
  0
LINE
  8
0
 10
15.3543
 20
-34.4863
 11
16.5485
 21
-33.9295
  0
LINE
  8
0
 10
16.5485
 20
-33.9295
 11
17.7225
 21
-33.3313
  0
LINE
  8
0
 10
17.7225
 20
-33.3313
 11
18.875
 21
-32.6925
  0
LINE
  8
0
 10
18.875
 20
-32.6925
 11
20.0044
 21
-32.0138
  0
LINE
  8
0
 10
20.0044
 20
-32.0138
 11
21.1095
 21
-31.2962
  0
LINE
  8
0
 10
21.1095
 20
-31.2962
 11
22.1889
 21
-30.5404
  0
LINE
  8
0
 10
22.1889
 20
-30.5404
 11
23.2412
 21
-29.7474
  0
LINE
  8
0
 10
23.2412
 20
-29.7474
 11
24.2652
 21
-28.9182
  0
LINE
  8
0
 10
24.2652
 20
-28.9182
 11
25.2597
 21
-28.0537
  0
LINE
  8
0
 10
25.2597
 20
-28.0537
 11
26.2233
 21
-27.1551
  0
LINE
  8
0
 10
26.2233
 20
-27.1551
 11
27.1551
 21
-26.2233
  0
LINE
  8
0
 10
27.1551
 20
-26.2233
 11
28.0537
 21
-25.2597
  0
LINE
  8
0
 10
28.0537
 20
-25.2597
 11
28.9182
 21
-24.2652
  0
LINE
  8
0
 10
28.9182
 20
-24.2652
 11
29.7474
 21
-23.2412
  0
LINE
  8
0
 10
29.7474
 20
-23.2412
 11
30.5404
 21
-22.1889
  0
LINE
  8
0
 10
30.5404
 20
-22.1889
 11
31.2962
 21
-21.1095
  0
LINE
  8
0
 10
31.2962
 20
-21.1095
 11
32.0138
 21
-20.0044
  0
LINE
  8
0
 10
32.0138
 20
-20.0044
 11
32.6925
 21
-18.875
  0
LINE
  8
0
 10
32.6925
 20
-18.875
 11
33.3313
 21
-17.7225
  0
LINE
  8
0
 10
33.3313
 20
-17.7225
 11
33.9295
 21
-16.5485
  0
LINE
  8
0
 10
33.9295
 20
-16.5485
 11
34.4863
 21
-15.3543
  0
LINE
  8
0
 10
34.4863
 20
-15.3543
 11
35.0012
 21
-14.1414
  0
LINE
  8
0
 10
35.0012
 20
-14.1414
 11
35.4734
 21
-12.9113
  0
LINE
  8
0
 10
35.4734
 20
-12.9113
 11
35.9024
 21
-11.6654
  0
LINE
  8
0
 10
35.9024
 20
-11.6654
 11
36.2876
 21
-10.4053
  0
LINE
  8
0
 10
36.2876
 20
-10.4053
 11
36.6287
 21
-9.13254
  0
LINE
  8
0
 10
36.6287
 20
-9.13254
 11
36.9251
 21
-7.84866
  0
LINE
  8
0
 10
36.9251
 20
-7.84866
 11
37.1765
 21
-6.55521
  0
LINE
  8
0
 10
37.1765
 20
-6.55521
 11
37.3826
 21
-5.25378
  0
LINE
  8
0
 10
37.3826
 20
-5.25378
 11
37.5432
 21
-3.94594
  0
LINE
  8
0
 10
37.5432
 20
-3.94594
 11
37.658
 21
-2.6333
  0
LINE
  8
0
 10
37.658
 20
-2.6333
 11
37.727
 21
-1.31744
  0
LINE
  8
0
 10
37.727
 20
-1.31744
 11
37.75
 21
0
  0
LINE
  8
0
 10
37.75
 20
0
 11
37.727
 21
1.31744
  0
LINE
  8
0
 10
37.727
 20
1.31744
 11
37.658
 21
2.6333
  0
LINE
  8
0
 10
37.658
 20
2.6333
 11
37.5432
 21
3.94594
  0
LINE
  8
0
 10
37.5432
 20
3.94594
 11
37.3826
 21
5.25378
  0
LINE
  8
0
 10
37.3826
 20
5.25378
 11
37.1765
 21
6.55521
  0
LINE
  8
0
 10
37.1765
 20
6.55521
 11
36.9251
 21
7.84866
  0
LINE
  8
0
 10
36.9251
 20
7.84866
 11
36.6287
 21
9.13254
  0
LINE
  8
0
 10
36.6287
 20
9.13254
 11
36.2876
 21
10.4053
  0
LINE
  8
0
 10
36.2876
 20
10.4053
 11
35.9024
 21
11.6654
  0
LINE
  8
0
 10
35.9024
 20
11.6654
 11
35.4734
 21
12.9113
  0
LINE
  8
0
 10
35.4734
 20
12.9113
 11
35.0012
 21
14.1414
  0
LINE
  8
0
 10
35.0012
 20
14.1414
 11
34.4863
 21
15.3543
  0
LINE
  8
0
 10
34.4863
 20
15.3543
 11
33.9295
 21
16.5485
  0
LINE
  8
0
 10
33.9295
 20
16.5485
 11
33.3313
 21
17.7225
  0
LINE
  8
0
 10
33.3313
 20
17.7225
 11
32.6925
 21
18.875
  0
LINE
  8
0
 10
32.6925
 20
18.875
 11
32.0138
 21
20.0044
  0
LINE
  8
0
 10
32.0138
 20
20.0044
 11
31.2962
 21
21.1095
  0
LINE
  8
0
 10
31.2962
 20
21.1095
 11
30.5404
 21
22.1889
  0
LINE
  8
0
 10
30.5404
 20
22.1889
 11
29.7474
 21
23.2412
  0
LINE
  8
0
 10
29.7474
 20
23.2412
 11
28.9182
 21
24.2652
  0
LINE
  8
0
 10
28.9182
 20
24.2652
 11
28.0537
 21
25.2597
  0
LINE
  8
0
 10
28.0537
 20
25.2597
 11
27.1551
 21
26.2233
  0
LINE
  8
0
 10
27.1551
 20
26.2233
 11
26.2233
 21
27.1551
  0
LINE
  8
0
 10
26.2233
 20
27.1551
 11
25.2597
 21
28.0537
  0
LINE
  8
0
 10
25.2597
 20
28.0537
 11
24.2652
 21
28.9182
  0
LINE
  8
0
 10
24.2652
 20
28.9182
 11
23.2412
 21
29.7474
  0
LINE
  8
0
 10
23.2412
 20
29.7474
 11
22.1889
 21
30.5404
  0
LINE
  8
0
 10
22.1889
 20
30.5404
 11
21.1095
 21
31.2962
  0
LINE
  8
0
 10
21.1095
 20
31.2962
 11
20.0044
 21
32.0138
  0
LINE
  8
0
 10
20.0044
 20
32.0138
 11
18.875
 21
32.6925
  0
LINE
  8
0
 10
18.875
 20
32.6925
 11
17.7225
 21
33.3313
  0
LINE
  8
0
 10
17.7225
 20
33.3313
 11
16.5485
 21
33.9295
  0
LINE
  8
0
 10
16.5485
 20
33.9295
 11
15.3543
 21
34.4863
  0
LINE
  8
0
 10
15.3543
 20
34.4863
 11
14.1414
 21
35.0012
  0
LINE
  8
0
 10
14.1414
 20
35.0012
 11
12.9113
 21
35.4734
  0
LINE
  8
0
 10
12.9113
 20
35.4734
 11
11.6654
 21
35.9024
  0
LINE
  8
0
 10
11.6654
 20
35.9024
 11
10.4053
 21
36.2876
  0
LINE
  8
0
 10
10.4053
 20
36.2876
 11
9.13254
 21
36.6287
  0
LINE
  8
0
 10
9.13254
 20
36.6287
 11
7.84866
 21
36.9251
  0
LINE
  8
0
 10
7.84866
 20
36.9251
 11
6.55521
 21
37.1765
  0
LINE
  8
0
 10
6.55521
 20
37.1765
 11
5.25378
 21
37.3826
  0
LINE
  8
0
 10
5.25378
 20
37.3826
 11
3.94594
 21
37.5432
  0
LINE
  8
0
 10
3.94594
 20
37.5432
 11
2.6333
 21
37.658
  0
LINE
  8
0
 10
2.6333
 20
37.658
 11
1.31744
 21
37.727
  0
LINE
  8
0
 10
1.31744
 20
37.727
 11
0
 21
37.75
  0
LINE
  8
0
 10
0
 20
37.75
 11
-1.31744
 21
37.727
  0
LINE
  8
0
 10
-1.31744
 20
37.727
 11
-2.6333
 21
37.658
  0
LINE
  8
0
 10
-2.6333
 20
37.658
 11
-3.94594
 21
37.5432
  0
LINE
  8
0
 10
-3.94594
 20
37.5432
 11
-5.25378
 21
37.3826
  0
LINE
  8
0
 10
-5.25378
 20
37.3826
 11
-6.55521
 21
37.1765
  0
LINE
  8
0
 10
-6.55521
 20
37.1765
 11
-7.84866
 21
36.9251
  0
LINE
  8
0
 10
-7.84866
 20
36.9251
 11
-9.13254
 21
36.6287
  0
LINE
  8
0
 10
-9.13254
 20
36.6287
 11
-10.4053
 21
36.2876
  0
LINE
  8
0
 10
-10.4053
 20
36.2876
 11
-11.6654
 21
35.9024
  0
LINE
  8
0
 10
-11.6654
 20
35.9024
 11
-12.9113
 21
35.4734
  0
LINE
  8
0
 10
-12.9113
 20
35.4734
 11
-14.1414
 21
35.0012
  0
LINE
  8
0
 10
-14.1414
 20
35.0012
 11
-15.3543
 21
34.4863
  0
LINE
  8
0
 10
-15.3543
 20
34.4863
 11
-16.5485
 21
33.9295
  0
LINE
  8
0
 10
-16.5485
 20
33.9295
 11
-17.7225
 21
33.3313
  0
LINE
  8
0
 10
-17.7225
 20
33.3313
 11
-18.875
 21
32.6925
  0
LINE
  8
0
 10
-18.875
 20
32.6925
 11
-20.0044
 21
32.0138
  0
LINE
  8
0
 10
-20.0044
 20
32.0138
 11
-21.1095
 21
31.2962
  0
LINE
  8
0
 10
-21.1095
 20
31.2962
 11
-22.1889
 21
30.5404
  0
LINE
  8
0
 10
-22.1889
 20
30.5404
 11
-23.2412
 21
29.7474
  0
LINE
  8
0
 10
-23.2412
 20
29.7474
 11
-24.2652
 21
28.9182
  0
LINE
  8
0
 10
-24.2652
 20
28.9182
 11
-25.2597
 21
28.0537
  0
LINE
  8
0
 10
-25.2597
 20
28.0537
 11
-26.2233
 21
27.1551
  0
LINE
  8
0
 10
-26.2233
 20
27.1551
 11
-27.1551
 21
26.2233
  0
LINE
  8
0
 10
-27.1551
 20
26.2233
 11
-28.0537
 21
25.2597
  0
LINE
  8
0
 10
-28.0537
 20
25.2597
 11
-28.9182
 21
24.2652
  0
LINE
  8
0
 10
-28.9182
 20
24.2652
 11
-29.7474
 21
23.2412
  0
LINE
  8
0
 10
-29.7474
 20
23.2412
 11
-30.5404
 21
22.1889
  0
LINE
  8
0
 10
-30.5404
 20
22.1889
 11
-31.2962
 21
21.1095
  0
LINE
  8
0
 10
-31.2962
 20
21.1095
 11
-32.0138
 21
20.0044
  0
LINE
  8
0
 10
-32.0138
 20
20.0044
 11
-32.6925
 21
18.875
  0
LINE
  8
0
 10
-32.6925
 20
18.875
 11
-33.3313
 21
17.7225
  0
LINE
  8
0
 10
-33.3313
 20
17.7225
 11
-33.9295
 21
16.5485
  0
LINE
  8
0
 10
-33.9295
 20
16.5485
 11
-34.4863
 21
15.3543
  0
LINE
  8
0
 10
-34.4863
 20
15.3543
 11
-35.0012
 21
14.1414
  0
LINE
  8
0
 10
-35.0012
 20
14.1414
 11
-35.4734
 21
12.9113
  0
LINE
  8
0
 10
-35.4734
 20
12.9113
 11
-35.9024
 21
11.6654
  0
LINE
  8
0
 10
-35.9024
 20
11.6654
 11
-36.2876
 21
10.4053
  0
LINE
  8
0
 10
-36.2876
 20
10.4053
 11
-36.6287
 21
9.13254
  0
LINE
  8
0
 10
-36.6287
 20
9.13254
 11
-36.9251
 21
7.84866
  0
LINE
  8
0
 10
-36.9251
 20
7.84866
 11
-37.1765
 21
6.55521
  0
LINE
  8
0
 10
-37.1765
 20
6.55521
 11
-37.3826
 21
5.25378
  0
LINE
  8
0
 10
-37.3826
 20
5.25378
 11
-37.5432
 21
3.94594
  0
LINE
  8
0
 10
-37.5432
 20
3.94594
 11
-37.658
 21
2.6333
  0
LINE
  8
0
 10
-37.658
 20
2.6333
 11
-37.727
 21
1.31744
  0
LINE
  8
0
 10
-37.727
 20
1.31744
 11
-37.75
 21
0
  0
LINE
  8
0
 10
-37.75
 20
0
 11
-37.727
 21
-1.31744
  0
LINE
  8
0
 10
-37.727
 20
-1.31744
 11
-37.658
 21
-2.6333
  0
LINE
  8
0
 10
-37.658
 20
-2.6333
 11
-37.5432
 21
-3.94594
  0
LINE
  8
0
 10
-37.5432
 20
-3.94594
 11
-37.3826
 21
-5.25378
  0
LINE
  8
0
 10
-37.3826
 20
-5.25378
 11
-37.1765
 21
-6.55521
  0
LINE
  8
0
 10
-37.1765
 20
-6.55521
 11
-36.9251
 21
-7.84866
  0
LINE
  8
0
 10
-36.9251
 20
-7.84866
 11
-36.6287
 21
-9.13254
  0
LINE
  8
0
 10
-36.6287
 20
-9.13254
 11
-36.2876
 21
-10.4053
  0
LINE
  8
0
 10
-36.2876
 20
-10.4053
 11
-35.9024
 21
-11.6654
  0
LINE
  8
0
 10
-35.9024
 20
-11.6654
 11
-35.4734
 21
-12.9113
  0
LINE
  8
0
 10
-35.4734
 20
-12.9113
 11
-35.0012
 21
-14.1414
  0
LINE
  8
0
 10
-35.0012
 20
-14.1414
 11
-34.4863
 21
-15.3543
  0
LINE
  8
0
 10
-34.4863
 20
-15.3543
 11
-33.9295
 21
-16.5485
  0
LINE
  8
0
 10
-33.9295
 20
-16.5485
 11
-33.3313
 21
-17.7225
  0
LINE
  8
0
 10
-33.3313
 20
-17.7225
 11
-32.6925
 21
-18.875
  0
LINE
  8
0
 10
-32.6925
 20
-18.875
 11
-32.0138
 21
-20.0044
  0
LINE
  8
0
 10
-32.0138
 20
-20.0044
 11
-31.2962
 21
-21.1095
  0
LINE
  8
0
 10
-31.2962
 20
-21.1095
 11
-30.5404
 21
-22.1889
  0
LINE
  8
0
 10
-30.5404
 20
-22.1889
 11
-29.7474
 21
-23.2412
  0
LINE
  8
0
 10
-29.7474
 20
-23.2412
 11
-28.9182
 21
-24.2652
  0
LINE
  8
0
 10
-28.9182
 20
-24.2652
 11
-28.0537
 21
-25.2597
  0
LINE
  8
0
 10
-28.0537
 20
-25.2597
 11
-27.1551
 21
-26.2233
  0
LINE
  8
0
 10
-27.1551
 20
-26.2233
 11
-26.2233
 21
-27.1551
  0
LINE
  8
0
 10
-26.2233
 20
-27.1551
 11
-25.2597
 21
-28.0537
  0
LINE
  8
0
 10
-25.2597
 20
-28.0537
 11
-24.2652
 21
-28.9182
  0
LINE
  8
0
 10
-24.2652
 20
-28.9182
 11
-23.2412
 21
-29.7474
  0
LINE
  8
0
 10
-23.2412
 20
-29.7474
 11
-22.1889
 21
-30.5404
  0
LINE
  8
0
 10
-22.1889
 20
-30.5404
 11
-21.1095
 21
-31.2962
  0
LINE
  8
0
 10
-21.1095
 20
-31.2962
 11
-20.0044
 21
-32.0138
  0
LINE
  8
0
 10
-20.0044
 20
-32.0138
 11
-18.875
 21
-32.6925
  0
LINE
  8
0
 10
-18.875
 20
-32.6925
 11
-17.7225
 21
-33.3313
  0
LINE
  8
0
 10
-17.7225
 20
-33.3313
 11
-16.5485
 21
-33.9295
  0
LINE
  8
0
 10
-16.5485
 20
-33.9295
 11
-15.3543
 21
-34.4863
  0
LINE
  8
0
 10
-15.3543
 20
-34.4863
 11
-14.1414
 21
-35.0012
  0
LINE
  8
0
 10
-14.1414
 20
-35.0012
 11
-12.9113
 21
-35.4734
  0
LINE
  8
0
 10
-12.9113
 20
-35.4734
 11
-11.6654
 21
-35.9024
  0
LINE
  8
0
 10
-11.6654
 20
-35.9024
 11
-10.4053
 21
-36.2876
  0
LINE
  8
0
 10
-10.4053
 20
-36.2876
 11
-9.13254
 21
-36.6287
  0
LINE
  8
0
 10
-9.13254
 20
-36.6287
 11
-7.84866
 21
-36.9251
  0
LINE
  8
0
 10
-7.84866
 20
-36.9251
 11
-6.55521
 21
-37.1765
  0
LINE
  8
0
 10
-6.55521
 20
-37.1765
 11
-5.25378
 21
-37.3826
  0
LINE
  8
0
 10
-5.25378
 20
-37.3826
 11
-3.94594
 21
-37.5432
  0
LINE
  8
0
 10
-3.94594
 20
-37.5432
 11
-2.6333
 21
-37.658
  0
LINE
  8
0
 10
-2.6333
 20
-37.658
 11
-1.31744
 21
-37.727
  0
LINE
  8
0
 10
-1.31744
 20
-37.727
 11
0
 21
-37.75
  0
LINE
  8
0
 10
0
 20
-37.75
 11
1.31744
 21
-37.727
  0
LINE
  8
0
 10
-5.14946
 20
32.0056
 11
-5.44504
 21
32.0501
  0
LINE
  8
0
 10
-5.44504
 20
32.0501
 11
-5.73067
 21
32.1382
  0
LINE
  8
0
 10
-5.73067
 20
32.1382
 11
-6
 21
32.2679
  0
LINE
  8
0
 10
-6
 20
32.2679
 11
-6.24698
 21
32.4363
  0
LINE
  8
0
 10
-6.24698
 20
32.4363
 11
-6.46609
 21
32.6396
  0
LINE
  8
0
 10
-6.46609
 20
32.6396
 11
-6.65247
 21
32.8734
  0
LINE
  8
0
 10
-6.65247
 20
32.8734
 11
-6.80193
 21
33.1322
  0
LINE
  8
0
 10
-6.80193
 20
33.1322
 11
-6.91113
 21
33.4105
  0
LINE
  8
0
 10
-6.91113
 20
33.4105
 11
-6.97766
 21
33.7019
  0
LINE
  8
0
 10
-6.97766
 20
33.7019
 11
-7
 21
34
  0
LINE
  8
0
 10
-7
 20
34
 11
-6.97766
 21
34.2981
  0
LINE
  8
0
 10
-6.97766
 20
34.2981
 11
-6.91113
 21
34.5895
  0
LINE
  8
0
 10
-6.91113
 20
34.5895
 11
-6.80193
 21
34.8678
  0
LINE
  8
0
 10
-6.80193
 20
34.8678
 11
-6.65247
 21
35.1266
  0
LINE
  8
0
 10
-6.65247
 20
35.1266
 11
-6.46609
 21
35.3603
  0
LINE
  8
0
 10
-6.46609
 20
35.3603
 11
-6.24698
 21
35.5637
  0
LINE
  8
0
 10
-6.24698
 20
35.5637
 11
-6
 21
35.732
  0
LINE
  8
0
 10
-6
 20
35.732
 11
-5.73067
 21
35.8617
  0
LINE
  8
0
 10
-5.73067
 20
35.8617
 11
-5.44504
 21
35.9498
  0
LINE
  8
0
 10
-5.44504
 20
35.9498
 11
-5.14946
 21
35.9944
  0
LINE
  8
0
 10
-5.14946
 20
35.9944
 11
-4.85052
 21
35.9944
  0
LINE
  8
0
 10
-4.85052
 20
35.9944
 11
-4.55495
 21
35.9498
  0
LINE
  8
0
 10
-4.55495
 20
35.9498
 11
-4.26932
 21
35.8617
  0
LINE
  8
0
 10
-4.26932
 20
35.8617
 11
-4
 21
35.732
  0
LINE
  8
0
 10
-4
 20
35.732
 11
-3.75301
 21
35.5637
  0
LINE
  8
0
 10
-3.75301
 20
35.5637
 11
-3.53389
 21
35.3603
  0
LINE
  8
0
 10
-3.53389
 20
35.3603
 11
-3.34752
 21
35.1266
  0
LINE
  8
0
 10
-3.34752
 20
35.1266
 11
-3.19806
 21
34.8678
  0
LINE
  8
0
 10
-3.19806
 20
34.8678
 11
-3.08885
 21
34.5895
  0
LINE
  8
0
 10
-3.08885
 20
34.5895
 11
-3.02232
 21
34.2981
  0
LINE
  8
0
 10
-3.02232
 20
34.2981
 11
-3
 21
34
  0
LINE
  8
0
 10
-3
 20
34
 11
-3.02232
 21
33.7019
  0
LINE
  8
0
 10
-3.02232
 20
33.7019
 11
-3.08885
 21
33.4105
  0
LINE
  8
0
 10
-3.08885
 20
33.4105
 11
-3.19806
 21
33.1322
  0
LINE
  8
0
 10
-3.19806
 20
33.1322
 11
-3.34752
 21
32.8734
  0
LINE
  8
0
 10
-3.34752
 20
32.8734
 11
-3.53389
 21
32.6396
  0
LINE
  8
0
 10
-3.53389
 20
32.6396
 11
-3.75301
 21
32.4363
  0
LINE
  8
0
 10
-3.75301
 20
32.4363
 11
-4
 21
32.2679
  0
LINE
  8
0
 10
-4
 20
32.2679
 11
-4.26932
 21
32.1382
  0
LINE
  8
0
 10
-4.26932
 20
32.1382
 11
-4.55495
 21
32.0501
  0
LINE
  8
0
 10
-4.55495
 20
32.0501
 11
-4.85052
 21
32.0056
  0
LINE
  8
0
 10
-4.85052
 20
32.0056
 11
-5.14946
 21
32.0056
  0
LINE
  8
0
 10
-3.2
 20
-30.7
 11
-3.2
 21
-25.0428
  0
LINE
  8
0
 10
-3.2
 20
-25.0428
 11
-3.51411
 21
-25.0043
  0
LINE
  8
0
 10
-3.51411
 20
-25.0043
 11
-4.38461
 21
-24.8664
  0
LINE
  8
0
 10
-4.38461
 20
-24.8664
 11
-5.24976
 21
-24.6982
  0
LINE
  8
0
 10
-5.24976
 20
-24.6982
 11
-6.10852
 21
-24.5
  0
LINE
  8
0
 10
-6.10852
 20
-24.5
 11
-6.95984
 21
-24.2719
  0
LINE
  8
0
 10
-6.95984
 20
-24.2719
 11
-7.80267
 21
-24.0142
  0
LINE
  8
0
 10
-7.80267
 20
-24.0142
 11
-8.636
 21
-23.7272
  0
LINE
  8
0
 10
-8.636
 20
-23.7272
 11
-9.4588
 21
-23.4114
  0
LINE
  8
0
 10
-9.4588
 20
-23.4114
 11
-10.2701
 21
-23.067
  0
LINE
  8
0
 10
-10.2701
 20
-23.067
 11
-11.0689
 21
-22.6945
  0
LINE
  8
0
 10
-11.0689
 20
-22.6945
 11
-11.8542
 21
-22.2944
  0
LINE
  8
0
 10
-11.8542
 20
-22.2944
 11
-12.625
 21
-21.8671
  0
LINE
  8
0
 10
-12.625
 20
-21.8671
 11
-13.3804
 21
-21.4132
  0
LINE
  8
0
 10
-13.3804
 20
-21.4132
 11
-14.1196
 21
-20.9332
  0
LINE
  8
0
 10
-14.1196
 20
-20.9332
 11
-14.8416
 21
-20.4277
  0
LINE
  8
0
 10
-14.8416
 20
-20.4277
 11
-15.5454
 21
-19.8973
  0
LINE
  8
0
 10
-15.5454
 20
-19.8973
 11
-16.2304
 21
-19.3426
  0
LINE
  8
0
 10
-16.2304
 20
-19.3426
 11
-16.8955
 21
-18.7644
  0
LINE
  8
0
 10
-16.8955
 20
-18.7644
 11
-17.5401
 21
-18.1633
  0
LINE
  8
0
 10
-17.5401
 20
-18.1633
 11
-18.1633
 21
-17.5401
  0
LINE
  8
0
 10
-18.1633
 20
-17.5401
 11
-18.7644
 21
-16.8955
  0
LINE
  8
0
 10
-18.7644
 20
-16.8955
 11
-19.3426
 21
-16.2304
  0
LINE
  8
0
 10
-19.3426
 20
-16.2304
 11
-19.8973
 21
-15.5454
  0
LINE
  8
0
 10
-19.8973
 20
-15.5454
 11
-20.4277
 21
-14.8416
  0
LINE
  8
0
 10
-20.4277
 20
-14.8416
 11
-20.9332
 21
-14.1196
  0
LINE
  8
0
 10
-20.9332
 20
-14.1196
 11
-21.4132
 21
-13.3804
  0
LINE
  8
0
 10
-21.4132
 20
-13.3804
 11
-21.8671
 21
-12.625
  0
LINE
  8
0
 10
-21.8671
 20
-12.625
 11
-22.2944
 21
-11.8542
  0
LINE
  8
0
 10
-22.2944
 20
-11.8542
 11
-22.6945
 21
-11.0689
  0
LINE
  8
0
 10
-22.6945
 20
-11.0689
 11
-23.067
 21
-10.2701
  0
LINE
  8
0
 10
-23.067
 20
-10.2701
 11
-23.4114
 21
-9.4588
  0
LINE
  8
0
 10
-23.4114
 20
-9.4588
 11
-23.7272
 21
-8.636
  0
LINE
  8
0
 10
-23.7272
 20
-8.636
 11
-24.0142
 21
-7.80267
  0
LINE
  8
0
 10
-24.0142
 20
-7.80267
 11
-24.2719
 21
-6.95984
  0
LINE
  8
0
 10
-24.2719
 20
-6.95984
 11
-24.5
 21
-6.10852
  0
LINE
  8
0
 10
-24.5
 20
-6.10852
 11
-24.6982
 21
-5.24976
  0
LINE
  8
0
 10
-24.6982
 20
-5.24976
 11
-24.8664
 21
-4.38461
  0
LINE
  8
0
 10
-24.8664
 20
-4.38461
 11
-25.0043
 21
-3.51411
  0
LINE
  8
0
 10
-25.0043
 20
-3.51411
 11
-25.1117
 21
-2.63934
  0
LINE
  8
0
 10
-25.1117
 20
-2.63934
 11
-25.1885
 21
-1.76134
  0
LINE
  8
0
 10
-25.1885
 20
-1.76134
 11
-25.2346
 21
-0.88121
  0
LINE
  8
0
 10
-25.2346
 20
-0.88121
 11
-25.25
 21
0
  0
LINE
  8
0
 10
-25.25
 20
0
 11
-25.2346
 21
0.88121
  0
LINE
  8
0
 10
-25.2346
 20
0.88121
 11
-25.1885
 21
1.76134
  0
LINE
  8
0
 10
-25.1885
 20
1.76134
 11
-25.1117
 21
2.63934
  0
LINE
  8
0
 10
-25.1117
 20
2.63934
 11
-25.0043
 21
3.51411
  0
LINE
  8
0
 10
-25.0043
 20
3.51411
 11
-24.8664
 21
4.38461
  0
LINE
  8
0
 10
-24.8664
 20
4.38461
 11
-24.6982
 21
5.24976
  0
LINE
  8
0
 10
-24.6982
 20
5.24976
 11
-24.5
 21
6.10852
  0
LINE
  8
0
 10
-24.5
 20
6.10852
 11
-24.2719
 21
6.95984
  0
LINE
  8
0
 10
-24.2719
 20
6.95984
 11
-24.0142
 21
7.80267
  0
LINE
  8
0
 10
-24.0142
 20
7.80267
 11
-23.7272
 21
8.636
  0
LINE
  8
0
 10
-23.7272
 20
8.636
 11
-23.4114
 21
9.4588
  0
LINE
  8
0
 10
-23.4114
 20
9.4588
 11
-23.067
 21
10.2701
  0
LINE
  8
0
 10
-23.067
 20
10.2701
 11
-22.6945
 21
11.0689
  0
LINE
  8
0
 10
-22.6945
 20
11.0689
 11
-22.2944
 21
11.8542
  0
LINE
  8
0
 10
-22.2944
 20
11.8542
 11
-21.8671
 21
12.625
  0
LINE
  8
0
 10
-21.8671
 20
12.625
 11
-21.4132
 21
13.3804
  0
LINE
  8
0
 10
-21.4132
 20
13.3804
 11
-20.9332
 21
14.1196
  0
LINE
  8
0
 10
-20.9332
 20
14.1196
 11
-20.4277
 21
14.8416
  0
LINE
  8
0
 10
-20.4277
 20
14.8416
 11
-19.8973
 21
15.5454
  0
LINE
  8
0
 10
-19.8973
 20
15.5454
 11
-19.3426
 21
16.2304
  0
LINE
  8
0
 10
-19.3426
 20
16.2304
 11
-18.7644
 21
16.8955
  0
LINE
  8
0
 10
-18.7644
 20
16.8955
 11
-18.1633
 21
17.5401
  0
LINE
  8
0
 10
-18.1633
 20
17.5401
 11
-17.5401
 21
18.1633
  0
LINE
  8
0
 10
-17.5401
 20
18.1633
 11
-16.8955
 21
18.7644
  0
LINE
  8
0
 10
-16.8955
 20
18.7644
 11
-16.2304
 21
19.3426
  0
LINE
  8
0
 10
-16.2304
 20
19.3426
 11
-15.5454
 21
19.8973
  0
LINE
  8
0
 10
-15.5454
 20
19.8973
 11
-14.8416
 21
20.4277
  0
LINE
  8
0
 10
-14.8416
 20
20.4277
 11
-14.1196
 21
20.9332
  0
LINE
  8
0
 10
-14.1196
 20
20.9332
 11
-13.3804
 21
21.4132
  0
LINE
  8
0
 10
-13.3804
 20
21.4132
 11
-12.625
 21
21.8671
  0
LINE
  8
0
 10
-12.625
 20
21.8671
 11
-11.8542
 21
22.2944
  0
LINE
  8
0
 10
-11.8542
 20
22.2944
 11
-11.0689
 21
22.6945
  0
LINE
  8
0
 10
-11.0689
 20
22.6945
 11
-10.2701
 21
23.067
  0
LINE
  8
0
 10
-10.2701
 20
23.067
 11
-9.4588
 21
23.4114
  0
LINE
  8
0
 10
-9.4588
 20
23.4114
 11
-8.636
 21
23.7272
  0
LINE
  8
0
 10
-8.636
 20
23.7272
 11
-7.80267
 21
24.0142
  0
LINE
  8
0
 10
-7.80267
 20
24.0142
 11
-6.95984
 21
24.2719
  0
LINE
  8
0
 10
-6.95984
 20
24.2719
 11
-6.10852
 21
24.5
  0
LINE
  8
0
 10
-6.10852
 20
24.5
 11
-5.24976
 21
24.6982
  0
LINE
  8
0
 10
-5.24976
 20
24.6982
 11
-4.38461
 21
24.8664
  0
LINE
  8
0
 10
-4.38461
 20
24.8664
 11
-3.51411
 21
25.0043
  0
LINE
  8
0
 10
-3.51411
 20
25.0043
 11
-3.2
 21
25.0428
  0
LINE
  8
0
 10
-3.2
 20
25.0428
 11
-3.2
 21
30.7
  0
LINE
  8
0
 10
-3.2
 20
30.7
 11
18.2
 21
30.7
  0
LINE
  8
0
 10
18.2
 20
30.7
 11
18.2
 21
-30.7
  0
LINE
  8
0
 10
18.2
 20
-30.7
 11
-3.2
 21
-30.7
  0
LINE
  8
0
 10
29.7755
 20
-3.09184
 11
29.4781
 21
-3.05574
  0
LINE
  8
0
 10
29.4781
 20
-3.05574
 11
29.1856
 21
-2.9911
  0
LINE
  8
0
 10
29.1856
 20
-2.9911
 11
28.9007
 21
-2.89854
  0
LINE
  8
0
 10
28.9007
 20
-2.89854
 11
28.6261
 21
-2.77892
  0
LINE
  8
0
 10
28.6261
 20
-2.77892
 11
28.3643
 21
-2.63335
  0
LINE
  8
0
 10
28.3643
 20
-2.63335
 11
28.1178
 21
-2.46318
  0
LINE
  8
0
 10
28.1178
 20
-2.46318
 11
27.8888
 21
-2.27002
  0
LINE
  8
0
 10
27.8888
 20
-2.27002
 11
27.6796
 21
-2.05568
  0
LINE
  8
0
 10
27.6796
 20
-2.05568
 11
27.492
 21
-1.82213
  0
LINE
  8
0
 10
27.492
 20
-1.82213
 11
27.3279
 21
-1.57156
  0
LINE
  8
0
 10
27.3279
 20
-1.57156
 11
27.1887
 21
-1.30634
  0
LINE
  8
0
 10
27.1887
 20
-1.30634
 11
27.0757
 21
-1.0289
  0
LINE
  8
0
 10
27.0757
 20
-1.0289
 11
26.9901
 21
-0.741867
  0
LINE
  8
0
 10
26.9901
 20
-0.741867
 11
26.9325
 21
-0.447906
  0
LINE
  8
0
 10
26.9325
 20
-0.447906
 11
26.9036
 21
-0.149765
  0
LINE
  8
0
 10
26.9036
 20
-0.149765
 11
26.9036
 21
0.149765
  0
LINE
  8
0
 10
26.9036
 20
0.149765
 11
26.9325
 21
0.447906
  0
LINE
  8
0
 10
26.9325
 20
0.447906
 11
26.9901
 21
0.741867
  0
LINE
  8
0
 10
26.9901
 20
0.741867
 11
27.0757
 21
1.0289
  0
LINE
  8
0
 10
27.0757
 20
1.0289
 11
27.1887
 21
1.30634
  0
LINE
  8
0
 10
27.1887
 20
1.30634
 11
27.3279
 21
1.57156
  0
LINE
  8
0
 10
27.3279
 20
1.57156
 11
27.492
 21
1.82213
  0
LINE
  8
0
 10
27.492
 20
1.82213
 11
27.6796
 21
2.05568
  0
LINE
  8
0
 10
27.6796
 20
2.05568
 11
27.8888
 21
2.27002
  0
LINE
  8
0
 10
27.8888
 20
2.27002
 11
28.1178
 21
2.46318
  0
LINE
  8
0
 10
28.1178
 20
2.46318
 11
28.3643
 21
2.63335
  0
LINE
  8
0
 10
28.3643
 20
2.63335
 11
28.6261
 21
2.77892
  0
LINE
  8
0
 10
28.6261
 20
2.77892
 11
28.9007
 21
2.89854
  0
LINE
  8
0
 10
28.9007
 20
2.89854
 11
29.1856
 21
2.9911
  0
LINE
  8
0
 10
29.1856
 20
2.9911
 11
29.4781
 21
3.05574
  0
LINE
  8
0
 10
29.4781
 20
3.05574
 11
29.7755
 21
3.09184
  0
LINE
  8
0
 10
29.7755
 20
3.09184
 11
30.0749
 21
3.09909
  0
LINE
  8
0
 10
30.0749
 20
3.09909
 11
30.3737
 21
3.07739
  0
LINE
  8
0
 10
30.3737
 20
3.07739
 11
30.6689
 21
3.02696
  0
LINE
  8
0
 10
30.6689
 20
3.02696
 11
30.9579
 21
2.94827
  0
LINE
  8
0
 10
30.9579
 20
2.94827
 11
31.238
 21
2.84204
  0
LINE
  8
0
 10
31.238
 20
2.84204
 11
31.5065
 21
2.70929
  0
LINE
  8
0
 10
31.5065
 20
2.70929
 11
31.761
 21
2.55124
  0
LINE
  8
0
 10
31.761
 20
2.55124
 11
31.999
 21
2.36937
  0
LINE
  8
0
 10
31.999
 20
2.36937
 11
32.2184
 21
2.16537
  0
LINE
  8
0
 10
32.2184
 20
2.16537
 11
32.417
 21
1.94116
  0
LINE
  8
0
 10
32.417
 20
1.94116
 11
32.593
 21
1.69884
  0
LINE
  8
0
 10
32.593
 20
1.69884
 11
32.7449
 21
1.44063
  0
LINE
  8
0
 10
32.7449
 20
1.44063
 11
32.8711
 21
1.16899
  0
LINE
  8
0
 10
32.8711
 20
1.16899
 11
32.9706
 21
0.886429
  0
LINE
  8
0
 10
32.9706
 20
0.886429
 11
33.0422
 21
0.595581
  0
LINE
  8
0
 10
33.0422
 20
0.595581
 11
33.0855
 21
0.299179
  0
LINE
  8
0
 10
33.0855
 20
0.299179
 11
33.1
 21
0
  0
LINE
  8
0
 10
33.1
 20
0
 11
33.0855
 21
-0.299179
  0
LINE
  8
0
 10
33.0855
 20
-0.299179
 11
33.0422
 21
-0.595581
  0
LINE
  8
0
 10
33.0422
 20
-0.595581
 11
32.9706
 21
-0.886429
  0
LINE
  8
0
 10
32.9706
 20
-0.886429
 11
32.8711
 21
-1.16899
  0
LINE
  8
0
 10
32.8711
 20
-1.16899
 11
32.7449
 21
-1.44063
  0
LINE
  8
0
 10
32.7449
 20
-1.44063
 11
32.593
 21
-1.69884
  0
LINE
  8
0
 10
32.593
 20
-1.69884
 11
32.417
 21
-1.94116
  0
LINE
  8
0
 10
32.417
 20
-1.94116
 11
32.2184
 21
-2.16537
  0
LINE
  8
0
 10
32.2184
 20
-2.16537
 11
31.999
 21
-2.36937
  0
LINE
  8
0
 10
31.999
 20
-2.36937
 11
31.761
 21
-2.55124
  0
LINE
  8
0
 10
31.761
 20
-2.55124
 11
31.5065
 21
-2.70929
  0
LINE
  8
0
 10
31.5065
 20
-2.70929
 11
31.238
 21
-2.84204
  0
LINE
  8
0
 10
31.238
 20
-2.84204
 11
30.9579
 21
-2.94827
  0
LINE
  8
0
 10
30.9579
 20
-2.94827
 11
30.6689
 21
-3.02696
  0
LINE
  8
0
 10
30.6689
 20
-3.02696
 11
30.3737
 21
-3.07739
  0
LINE
  8
0
 10
30.3737
 20
-3.07739
 11
30.0749
 21
-3.09909
  0
LINE
  8
0
 10
30.0749
 20
-3.09909
 11
29.7755
 21
-3.09184
  0
LINE
  8
0
 10
-5.14946
 20
-35.9944
 11
-5.44504
 21
-35.9498
  0
LINE
  8
0
 10
-5.44504
 20
-35.9498
 11
-5.73067
 21
-35.8617
  0
LINE
  8
0
 10
-5.73067
 20
-35.8617
 11
-6
 21
-35.732
  0
LINE
  8
0
 10
-6
 20
-35.732
 11
-6.24698
 21
-35.5637
  0
LINE
  8
0
 10
-6.24698
 20
-35.5637
 11
-6.46609
 21
-35.3603
  0
LINE
  8
0
 10
-6.46609
 20
-35.3603
 11
-6.65247
 21
-35.1266
  0
LINE
  8
0
 10
-6.65247
 20
-35.1266
 11
-6.80193
 21
-34.8678
  0
LINE
  8
0
 10
-6.80193
 20
-34.8678
 11
-6.91113
 21
-34.5895
  0
LINE
  8
0
 10
-6.91113
 20
-34.5895
 11
-6.97766
 21
-34.2981
  0
LINE
  8
0
 10
-6.97766
 20
-34.2981
 11
-7
 21
-34
  0
LINE
  8
0
 10
-7
 20
-34
 11
-6.97766
 21
-33.7019
  0
LINE
  8
0
 10
-6.97766
 20
-33.7019
 11
-6.91113
 21
-33.4105
  0
LINE
  8
0
 10
-6.91113
 20
-33.4105
 11
-6.80193
 21
-33.1322
  0
LINE
  8
0
 10
-6.80193
 20
-33.1322
 11
-6.65247
 21
-32.8734
  0
LINE
  8
0
 10
-6.65247
 20
-32.8734
 11
-6.46609
 21
-32.6396
  0
LINE
  8
0
 10
-6.46609
 20
-32.6396
 11
-6.24698
 21
-32.4363
  0
LINE
  8
0
 10
-6.24698
 20
-32.4363
 11
-6
 21
-32.2679
  0
LINE
  8
0
 10
-6
 20
-32.2679
 11
-5.73067
 21
-32.1382
  0
LINE
  8
0
 10
-5.73067
 20
-32.1382
 11
-5.44504
 21
-32.0501
  0
LINE
  8
0
 10
-5.44504
 20
-32.0501
 11
-5.14946
 21
-32.0056
  0
LINE
  8
0
 10
-5.14946
 20
-32.0056
 11
-4.85052
 21
-32.0056
  0
LINE
  8
0
 10
-4.85052
 20
-32.0056
 11
-4.55495
 21
-32.0501
  0
LINE
  8
0
 10
-4.55495
 20
-32.0501
 11
-4.26932
 21
-32.1382
  0
LINE
  8
0
 10
-4.26932
 20
-32.1382
 11
-4
 21
-32.2679
  0
LINE
  8
0
 10
-4
 20
-32.2679
 11
-3.75301
 21
-32.4363
  0
LINE
  8
0
 10
-3.75301
 20
-32.4363
 11
-3.53389
 21
-32.6396
  0
LINE
  8
0
 10
-3.53389
 20
-32.6396
 11
-3.34752
 21
-32.8734
  0
LINE
  8
0
 10
-3.34752
 20
-32.8734
 11
-3.19806
 21
-33.1322
  0
LINE
  8
0
 10
-3.19806
 20
-33.1322
 11
-3.08885
 21
-33.4105
  0
LINE
  8
0
 10
-3.08885
 20
-33.4105
 11
-3.02232
 21
-33.7019
  0
LINE
  8
0
 10
-3.02232
 20
-33.7019
 11
-3
 21
-34
  0
LINE
  8
0
 10
-3
 20
-34
 11
-3.02232
 21
-34.2981
  0
LINE
  8
0
 10
-3.02232
 20
-34.2981
 11
-3.08885
 21
-34.5895
  0
LINE
  8
0
 10
-3.08885
 20
-34.5895
 11
-3.19806
 21
-34.8678
  0
LINE
  8
0
 10
-3.19806
 20
-34.8678
 11
-3.34752
 21
-35.1266
  0
LINE
  8
0
 10
-3.34752
 20
-35.1266
 11
-3.53389
 21
-35.3603
  0
LINE
  8
0
 10
-3.53389
 20
-35.3603
 11
-3.75301
 21
-35.5637
  0
LINE
  8
0
 10
-3.75301
 20
-35.5637
 11
-4
 21
-35.732
  0
LINE
  8
0
 10
-4
 20
-35.732
 11
-4.26932
 21
-35.8617
  0
LINE
  8
0
 10
-4.26932
 20
-35.8617
 11
-4.55495
 21
-35.9498
  0
LINE
  8
0
 10
-4.55495
 20
-35.9498
 11
-4.85052
 21
-35.9944
  0
LINE
  8
0
 10
-4.85052
 20
-35.9944
 11
-5.14946
 21
-35.9944
  0
ENDSEC
  0
SECTION
  2
OBJECTS
  0
DICTIONARY
  0
ENDSEC
  0
EOF
