  0
SECTION
  2
BLOCKS
  0
ENDSEC
  0
SECTION
  2
ENTITIES
  0
LINE
  8
0
 10
-44.4432
 20
14.7758
 11
-44.4229
 21
15.5513
  0
LINE
  8
0
 10
-44.4229
 20
15.5513
 11
-44.3891
 21
16.3263
  0
LINE
  8
0
 10
-44.3891
 20
16.3263
 11
-44.3417
 21
17.1007
  0
LINE
  8
0
 10
-44.3417
 20
17.1007
 11
-44.2809
 21
17.8741
  0
LINE
  8
0
 10
-44.2809
 20
17.8741
 11
-44.2065
 21
18.6463
  0
LINE
  8
0
 10
-44.2065
 20
18.6463
 11
-44.1187
 21
19.4171
  0
LINE
  8
0
 10
-44.1187
 20
19.4171
 11
-44.0174
 21
20.1862
  0
LINE
  8
0
 10
-44.0174
 20
20.1862
 11
-43.9027
 21
20.9535
  0
LINE
  8
0
 10
-43.9027
 20
20.9535
 11
-43.7747
 21
21.7187
  0
LINE
  8
0
 10
-43.7747
 20
21.7187
 11
-43.6333
 21
22.4815
  0
LINE
  8
0
 10
-43.6333
 20
22.4815
 11
-43.4787
 21
23.2417
  0
LINE
  8
0
 10
-43.4787
 20
23.2417
 11
-43.3107
 21
23.9991
  0
LINE
  8
0
 10
-43.3107
 20
23.9991
 11
-43.1296
 21
24.7534
  0
LINE
  8
0
 10
-43.1296
 20
24.7534
 11
-42.9354
 21
25.5045
  0
LINE
  8
0
 10
-42.9354
 20
25.5045
 11
-42.7281
 21
26.2521
  0
LINE
  8
0
 10
-42.7281
 20
26.2521
 11
-42.5077
 21
26.9959
  0
LINE
  8
0
 10
-42.5077
 20
26.9959
 11
-42.2745
 21
27.7358
  0
LINE
  8
0
 10
-42.2745
 20
27.7358
 11
-42.0283
 21
28.4715
  0
LINE
  8
0
 10
-42.0283
 20
28.4715
 11
-41.7693
 21
29.2028
  0
LINE
  8
0
 10
-41.7693
 20
29.2028
 11
-41.4977
 21
29.9294
  0
LINE
  8
0
 10
-41.4977
 20
29.9294
 11
-41.2133
 21
30.6513
  0
LINE
  8
0
 10
-41.2133
 20
30.6513
 11
-40.9164
 21
31.368
  0
LINE
  8
0
 10
-40.9164
 20
31.368
 11
-40.6071
 21
32.0794
  0
LINE
  8
0
 10
-40.6071
 20
32.0794
 11
-40.2854
 21
32.7854
  0
LINE
  8
0
 10
-40.2854
 20
32.7854
 11
-39.9514
 21
33.4856
  0
LINE
  8
0
 10
-39.9514
 20
33.4856
 11
-39.6052
 21
34.1799
  0
LINE
  8
0
 10
-39.6052
 20
34.1799
 11
-39.247
 21
34.868
  0
LINE
  8
0
 10
-39.247
 20
34.868
 11
-38.8768
 21
35.5498
  0
LINE
  8
0
 10
-38.8768
 20
35.5498
 11
-38.4948
 21
36.225
  0
LINE
  8
0
 10
-38.4948
 20
36.225
 11
-38.1011
 21
36.8934
  0
LINE
  8
0
 10
-38.1011
 20
36.8934
 11
-37.6957
 21
37.5549
  0
LINE
  8
0
 10
-37.6957
 20
37.5549
 11
-37.2789
 21
38.2092
  0
LINE
  8
0
 10
-37.2789
 20
38.2092
 11
-36.8507
 21
38.8561
  0
LINE
  8
0
 10
-36.8507
 20
38.8561
 11
-36.4113
 21
39.4955
  0
LINE
  8
0
 10
-36.4113
 20
39.4955
 11
-35.9608
 21
40.127
  0
LINE
  8
0
 10
-35.9608
 20
40.127
 11
-35.4993
 21
40.7507
  0
LINE
  8
0
 10
-35.4993
 20
40.7507
 11
-35.0271
 21
41.3661
  0
LINE
  8
0
 10
-35.0271
 20
41.3661
 11
-34.5441
 21
41.9733
  0
LINE
  8
0
 10
-34.5441
 20
41.9733
 11
-34.0507
 21
42.5719
  0
LINE
  8
0
 10
-34.0507
 20
42.5719
 11
-33.5468
 21
43.1618
  0
LINE
  8
0
 10
-33.5468
 20
43.1618
 11
-33.0328
 21
43.7428
  0
LINE
  8
0
 10
-33.0328
 20
43.7428
 11
-32.5087
 21
44.3148
  0
LINE
  8
0
 10
-32.5087
 20
44.3148
 11
-31.9746
 21
44.8776
  0
LINE
  8
0
 10
-31.9746
 20
44.8776
 11
-31.4309
 21
45.4309
  0
LINE
  8
0
 10
-31.4309
 20
45.4309
 11
-30.8776
 21
45.9747
  0
LINE
  8
0
 10
-30.8776
 20
45.9747
 11
-30.3148
 21
46.5087
  0
LINE
  8
0
 10
-30.3148
 20
46.5087
 11
-29.7428
 21
47.0328
  0
LINE
  8
0
 10
-29.7428
 20
47.0328
 11
-29.1618
 21
47.5468
  0
LINE
  8
0
 10
-29.1618
 20
47.5468
 11
-28.5719
 21
48.0507
  0
LINE
  8
0
 10
-28.5719
 20
48.0507
 11
-27.9733
 21
48.5441
  0
LINE
  8
0
 10
-27.9733
 20
48.5441
 11
-27.3661
 21
49.0271
  0
LINE
  8
0
 10
-27.3661
 20
49.0271
 11
-26.7507
 21
49.4993
  0
LINE
  8
0
 10
-26.7507
 20
49.4993
 11
-26.127
 21
49.9608
  0
LINE
  8
0
 10
-26.127
 20
49.9608
 11
-25.4955
 21
50.4113
  0
LINE
  8
0
 10
-25.4955
 20
50.4113
 11
-24.8561
 21
50.8507
  0
LINE
  8
0
 10
-24.8561
 20
50.8507
 11
-24.2092
 21
51.2789
  0
LINE
  8
0
 10
-24.2092
 20
51.2789
 11
-23.5549
 21
51.6957
  0
LINE
  8
0
 10
-23.5549
 20
51.6957
 11
-22.8934
 21
52.1011
  0
LINE
  8
0
 10
-22.8934
 20
52.1011
 11
-22.225
 21
52.4948
  0
LINE
  8
0
 10
-22.225
 20
52.4948
 11
-21.5498
 21
52.8768
  0
LINE
  8
0
 10
-21.5498
 20
52.8768
 11
-20.868
 21
53.247
  0
LINE
  8
0
 10
-20.868
 20
53.247
 11
-20.1799
 21
53.6052
  0
LINE
  8
0
 10
-20.1799
 20
53.6052
 11
-19.4856
 21
53.9514
  0
LINE
  8
0
 10
-19.4856
 20
53.9514
 11
-18.7854
 21
54.2854
  0
LINE
  8
0
 10
-18.7854
 20
54.2854
 11
-18.0794
 21
54.6071
  0
LINE
  8
0
 10
-18.0794
 20
54.6071
 11
-17.368
 21
54.9164
  0
LINE
  8
0
 10
-17.368
 20
54.9164
 11
-16.6513
 21
55.2133
  0
LINE
  8
0
 10
-16.6513
 20
55.2133
 11
-15.9294
 21
55.4977
  0
LINE
  8
0
 10
-15.9294
 20
55.4977
 11
-15.2028
 21
55.7693
  0
LINE
  8
0
 10
-15.2028
 20
55.7693
 11
-14.4715
 21
56.0283
  0
LINE
  8
0
 10
-14.4715
 20
56.0283
 11
-13.7358
 21
56.2745
  0
LINE
  8
0
 10
-13.7358
 20
56.2745
 11
-12.9959
 21
56.5077
  0
LINE
  8
0
 10
-12.9959
 20
56.5077
 11
-12.2521
 21
56.7281
  0
LINE
  8
0
 10
-12.2521
 20
56.7281
 11
-11.5045
 21
56.9354
  0
LINE
  8
0
 10
-11.5045
 20
56.9354
 11
-10.7534
 21
57.1296
  0
LINE
  8
0
 10
-10.7534
 20
57.1296
 11
-9.99907
 21
57.3107
  0
LINE
  8
0
 10
-9.99907
 20
57.3107
 11
-9.24167
 21
57.4787
  0
LINE
  8
0
 10
-9.24167
 20
57.4787
 11
-8.48145
 21
57.6333
  0
LINE
  8
0
 10
-8.48145
 20
57.6333
 11
-7.71866
 21
57.7747
  0
LINE
  8
0
 10
-7.71866
 20
57.7747
 11
-6.95351
 21
57.9027
  0
LINE
  8
0
 10
-6.95351
 20
57.9027
 11
-6.18623
 21
58.0174
  0
LINE
  8
0
 10
-6.18623
 20
58.0174
 11
-5.41708
 21
58.1187
  0
LINE
  8
0
 10
-5.41708
 20
58.1187
 11
-4.64629
 21
58.2065
  0
LINE
  8
0
 10
-4.64629
 20
58.2065
 11
-3.87407
 21
58.2809
  0
LINE
  8
0
 10
-3.87407
 20
58.2809
 11
-3.10066
 21
58.3417
  0
LINE
  8
0
 10
-3.10066
 20
58.3417
 11
-2.32632
 21
58.3891
  0
LINE
  8
0
 10
-2.32632
 20
58.3891
 11
-1.55127
 21
58.4229
  0
LINE
  8
0
 10
-1.55127
 20
58.4229
 11
-0.775757
 21
58.4432
  0
LINE
  8
0
 10
-0.775757
 20
58.4432
 11
0
 21
58.45
  0
LINE
  8
0
 10
0
 20
58.45
 11
0.775757
 21
58.4432
  0
LINE
  8
0
 10
0.775757
 20
58.4432
 11
1.55127
 21
58.4229
  0
LINE
  8
0
 10
1.55127
 20
58.4229
 11
2.32632
 21
58.3891
  0
LINE
  8
0
 10
2.32632
 20
58.3891
 11
3.10066
 21
58.3417
  0
LINE
  8
0
 10
3.10066
 20
58.3417
 11
3.87407
 21
58.2809
  0
LINE
  8
0
 10
3.87407
 20
58.2809
 11
4.64629
 21
58.2065
  0
LINE
  8
0
 10
4.64629
 20
58.2065
 11
5.41708
 21
58.1187
  0
LINE
  8
0
 10
5.41708
 20
58.1187
 11
6.18623
 21
58.0174
  0
LINE
  8
0
 10
6.18623
 20
58.0174
 11
6.95351
 21
57.9027
  0
LINE
  8
0
 10
6.95351
 20
57.9027
 11
7.71866
 21
57.7747
  0
LINE
  8
0
 10
7.71866
 20
57.7747
 11
8.48145
 21
57.6333
  0
LINE
  8
0
 10
8.48145
 20
57.6333
 11
9.24167
 21
57.4787
  0
LINE
  8
0
 10
9.24167
 20
57.4787
 11
9.99907
 21
57.3107
  0
LINE
  8
0
 10
9.99907
 20
57.3107
 11
10.7534
 21
57.1296
  0
LINE
  8
0
 10
10.7534
 20
57.1296
 11
11.5045
 21
56.9354
  0
LINE
  8
0
 10
11.5045
 20
56.9354
 11
12.2521
 21
56.7281
  0
LINE
  8
0
 10
12.2521
 20
56.7281
 11
12.9959
 21
56.5077
  0
LINE
  8
0
 10
12.9959
 20
56.5077
 11
13.7358
 21
56.2745
  0
LINE
  8
0
 10
13.7358
 20
56.2745
 11
14.4715
 21
56.0283
  0
LINE
  8
0
 10
14.4715
 20
56.0283
 11
15.2028
 21
55.7693
  0
LINE
  8
0
 10
15.2028
 20
55.7693
 11
15.9294
 21
55.4977
  0
LINE
  8
0
 10
15.9294
 20
55.4977
 11
16.6513
 21
55.2133
  0
LINE
  8
0
 10
16.6513
 20
55.2133
 11
17.368
 21
54.9164
  0
LINE
  8
0
 10
17.368
 20
54.9164
 11
18.0794
 21
54.6071
  0
LINE
  8
0
 10
18.0794
 20
54.6071
 11
18.7854
 21
54.2854
  0
LINE
  8
0
 10
18.7854
 20
54.2854
 11
19.4856
 21
53.9514
  0
LINE
  8
0
 10
19.4856
 20
53.9514
 11
20.1799
 21
53.6052
  0
LINE
  8
0
 10
20.1799
 20
53.6052
 11
20.868
 21
53.247
  0
LINE
  8
0
 10
20.868
 20
53.247
 11
21.5498
 21
52.8768
  0
LINE
  8
0
 10
21.5498
 20
52.8768
 11
22.225
 21
52.4948
  0
LINE
  8
0
 10
22.225
 20
52.4948
 11
22.8934
 21
52.1011
  0
LINE
  8
0
 10
22.8934
 20
52.1011
 11
23.5549
 21
51.6957
  0
LINE
  8
0
 10
23.5549
 20
51.6957
 11
24.2092
 21
51.2789
  0
LINE
  8
0
 10
24.2092
 20
51.2789
 11
24.8561
 21
50.8507
  0
LINE
  8
0
 10
24.8561
 20
50.8507
 11
25.4955
 21
50.4113
  0
LINE
  8
0
 10
25.4955
 20
50.4113
 11
26.127
 21
49.9608
  0
LINE
  8
0
 10
26.127
 20
49.9608
 11
26.7507
 21
49.4993
  0
LINE
  8
0
 10
26.7507
 20
49.4993
 11
27.3661
 21
49.0271
  0
LINE
  8
0
 10
27.3661
 20
49.0271
 11
27.9733
 21
48.5441
  0
LINE
  8
0
 10
27.9733
 20
48.5441
 11
28.5719
 21
48.0507
  0
LINE
  8
0
 10
28.5719
 20
48.0507
 11
29.1618
 21
47.5468
  0
LINE
  8
0
 10
29.1618
 20
47.5468
 11
29.7428
 21
47.0328
  0
LINE
  8
0
 10
29.7428
 20
47.0328
 11
30.3148
 21
46.5087
  0
LINE
  8
0
 10
30.3148
 20
46.5087
 11
30.8776
 21
45.9747
  0
LINE
  8
0
 10
30.8776
 20
45.9747
 11
31.4309
 21
45.4309
  0
LINE
  8
0
 10
31.4309
 20
45.4309
 11
31.9746
 21
44.8776
  0
LINE
  8
0
 10
31.9746
 20
44.8776
 11
32.5087
 21
44.3148
  0
LINE
  8
0
 10
32.5087
 20
44.3148
 11
33.0328
 21
43.7428
  0
LINE
  8
0
 10
33.0328
 20
43.7428
 11
33.5468
 21
43.1618
  0
LINE
  8
0
 10
33.5468
 20
43.1618
 11
34.0507
 21
42.5719
  0
LINE
  8
0
 10
34.0507
 20
42.5719
 11
34.5441
 21
41.9733
  0
LINE
  8
0
 10
34.5441
 20
41.9733
 11
35.0271
 21
41.3661
  0
LINE
  8
0
 10
35.0271
 20
41.3661
 11
35.4993
 21
40.7507
  0
LINE
  8
0
 10
35.4993
 20
40.7507
 11
35.9608
 21
40.127
  0
LINE
  8
0
 10
35.9608
 20
40.127
 11
36.4113
 21
39.4955
  0
LINE
  8
0
 10
36.4113
 20
39.4955
 11
36.8507
 21
38.8561
  0
LINE
  8
0
 10
36.8507
 20
38.8561
 11
37.2789
 21
38.2092
  0
LINE
  8
0
 10
37.2789
 20
38.2092
 11
37.6957
 21
37.5549
  0
LINE
  8
0
 10
37.6957
 20
37.5549
 11
38.1011
 21
36.8934
  0
LINE
  8
0
 10
38.1011
 20
36.8934
 11
38.4948
 21
36.225
  0
LINE
  8
0
 10
38.4948
 20
36.225
 11
38.8768
 21
35.5498
  0
LINE
  8
0
 10
38.8768
 20
35.5498
 11
39.247
 21
34.868
  0
LINE
  8
0
 10
39.247
 20
34.868
 11
39.6052
 21
34.1799
  0
LINE
  8
0
 10
39.6052
 20
34.1799
 11
39.9514
 21
33.4856
  0
LINE
  8
0
 10
39.9514
 20
33.4856
 11
40.2854
 21
32.7854
  0
LINE
  8
0
 10
40.2854
 20
32.7854
 11
40.6071
 21
32.0794
  0
LINE
  8
0
 10
40.6071
 20
32.0794
 11
40.9164
 21
31.368
  0
LINE
  8
0
 10
40.9164
 20
31.368
 11
41.2133
 21
30.6513
  0
LINE
  8
0
 10
41.2133
 20
30.6513
 11
41.4977
 21
29.9294
  0
LINE
  8
0
 10
41.4977
 20
29.9294
 11
41.7693
 21
29.2028
  0
LINE
  8
0
 10
41.7693
 20
29.2028
 11
42.0283
 21
28.4715
  0
LINE
  8
0
 10
42.0283
 20
28.4715
 11
42.2745
 21
27.7358
  0
LINE
  8
0
 10
42.2745
 20
27.7358
 11
42.5077
 21
26.9959
  0
LINE
  8
0
 10
42.5077
 20
26.9959
 11
42.7281
 21
26.2521
  0
LINE
  8
0
 10
42.7281
 20
26.2521
 11
42.9354
 21
25.5045
  0
LINE
  8
0
 10
42.9354
 20
25.5045
 11
43.1296
 21
24.7534
  0
LINE
  8
0
 10
43.1296
 20
24.7534
 11
43.3107
 21
23.9991
  0
LINE
  8
0
 10
43.3107
 20
23.9991
 11
43.4787
 21
23.2417
  0
LINE
  8
0
 10
43.4787
 20
23.2417
 11
43.6333
 21
22.4815
  0
LINE
  8
0
 10
43.6333
 20
22.4815
 11
43.7747
 21
21.7187
  0
LINE
  8
0
 10
43.7747
 20
21.7187
 11
43.9027
 21
20.9535
  0
LINE
  8
0
 10
43.9027
 20
20.9535
 11
44.0174
 21
20.1862
  0
LINE
  8
0
 10
44.0174
 20
20.1862
 11
44.1187
 21
19.4171
  0
LINE
  8
0
 10
44.1187
 20
19.4171
 11
44.2065
 21
18.6463
  0
LINE
  8
0
 10
44.2065
 20
18.6463
 11
44.2809
 21
17.8741
  0
LINE
  8
0
 10
44.2809
 20
17.8741
 11
44.3417
 21
17.1007
  0
LINE
  8
0
 10
44.3417
 20
17.1007
 11
44.3891
 21
16.3263
  0
LINE
  8
0
 10
44.3891
 20
16.3263
 11
44.4229
 21
15.5513
  0
LINE
  8
0
 10
44.4229
 20
15.5513
 11
44.4432
 21
14.7758
  0
LINE
  8
0
 10
44.4432
 20
14.7758
 11
44.45
 21
14
  0
LINE
  8
0
 10
44.45
 20
14
 11
63.45
 21
14
  0
LINE
  8
0
 10
63.45
 20
14
 11
63.45
 21
21.5
  0
LINE
  8
0
 10
63.45
 20
21.5
 11
49.8875
 21
21.5
  0
LINE
  8
0
 10
49.8875
 20
21.5
 11
49.8289
 21
21.8921
  0
LINE
  8
0
 10
49.8289
 20
21.8921
 11
49.6835
 21
22.7605
  0
LINE
  8
0
 10
49.6835
 20
22.7605
 11
49.5231
 21
23.6263
  0
LINE
  8
0
 10
49.5231
 20
23.6263
 11
49.3475
 21
24.4891
  0
LINE
  8
0
 10
49.3475
 20
24.4891
 11
49.157
 21
25.3488
  0
LINE
  8
0
 10
49.157
 20
25.3488
 11
48.9514
 21
26.205
  0
LINE
  8
0
 10
48.9514
 20
26.205
 11
48.731
 21
27.0574
  0
LINE
  8
0
 10
48.731
 20
27.0574
 11
48.4957
 21
27.9059
  0
LINE
  8
0
 10
48.4957
 20
27.9059
 11
48.2456
 21
28.7502
  0
LINE
  8
0
 10
48.2456
 20
28.7502
 11
47.9808
 21
29.5899
  0
LINE
  8
0
 10
47.9808
 20
29.5899
 11
47.7014
 21
30.4249
  0
LINE
  8
0
 10
47.7014
 20
30.4249
 11
47.4075
 21
31.2549
  0
LINE
  8
0
 10
47.4075
 20
31.2549
 11
47.0991
 21
32.0797
  0
LINE
  8
0
 10
47.0991
 20
32.0797
 11
46.7764
 21
32.8989
  0
LINE
  8
0
 10
46.7764
 20
32.8989
 11
46.4395
 21
33.7124
  0
LINE
  8
0
 10
46.4395
 20
33.7124
 11
46.0884
 21
34.5199
  0
LINE
  8
0
 10
46.0884
 20
34.5199
 11
45.7232
 21
35.3211
  0
LINE
  8
0
 10
45.7232
 20
35.3211
 11
45.3441
 21
36.1158
  0
LINE
  8
0
 10
45.3441
 20
36.1158
 11
44.9513
 21
36.9038
  0
LINE
  8
0
 10
44.9513
 20
36.9038
 11
44.5447
 21
37.6848
  0
LINE
  8
0
 10
44.5447
 20
37.6848
 11
44.1246
 21
38.4586
  0
LINE
  8
0
 10
44.1246
 20
38.4586
 11
43.691
 21
39.225
  0
LINE
  8
0
 10
43.691
 20
39.225
 11
43.2441
 21
39.9837
  0
LINE
  8
0
 10
43.2441
 20
39.9837
 11
42.784
 21
40.7344
  0
LINE
  8
0
 10
42.784
 20
40.7344
 11
42.3109
 21
41.477
  0
LINE
  8
0
 10
42.3109
 20
41.477
 11
41.8249
 21
42.2113
  0
LINE
  8
0
 10
41.8249
 20
42.2113
 11
41.3262
 21
42.9369
  0
LINE
  8
0
 10
41.3262
 20
42.9369
 11
40.8149
 21
43.6538
  0
LINE
  8
0
 10
40.8149
 20
43.6538
 11
40.2912
 21
44.3616
  0
LINE
  8
0
 10
40.2912
 20
44.3616
 11
39.7551
 21
45.0601
  0
LINE
  8
0
 10
39.7551
 20
45.0601
 11
39.207
 21
45.7492
  0
LINE
  8
0
 10
39.207
 20
45.7492
 11
38.6469
 21
46.4286
  0
LINE
  8
0
 10
38.6469
 20
46.4286
 11
38.0751
 21
47.0982
  0
LINE
  8
0
 10
38.0751
 20
47.0982
 11
37.4917
 21
47.7576
  0
LINE
  8
0
 10
37.4917
 20
47.7576
 11
36.8968
 21
48.4068
  0
LINE
  8
0
 10
36.8968
 20
48.4068
 11
36.2907
 21
49.0455
  0
LINE
  8
0
 10
36.2907
 20
49.0455
 11
35.6735
 21
49.6735
  0
LINE
  8
0
 10
35.6735
 20
49.6735
 11
35.0455
 21
50.2907
  0
LINE
  8
0
 10
35.0455
 20
50.2907
 11
34.4068
 21
50.8968
  0
LINE
  8
0
 10
34.4068
 20
50.8968
 11
33.7576
 21
51.4917
  0
LINE
  8
0
 10
33.7576
 20
51.4917
 11
33.0982
 21
52.0751
  0
LINE
  8
0
 10
33.0982
 20
52.0751
 11
32.4286
 21
52.6469
  0
LINE
  8
0
 10
32.4286
 20
52.6469
 11
31.7492
 21
53.207
  0
LINE
  8
0
 10
31.7492
 20
53.207
 11
31.0601
 21
53.7551
  0
LINE
  8
0
 10
31.0601
 20
53.7551
 11
30.3616
 21
54.2912
  0
LINE
  8
0
 10
30.3616
 20
54.2912
 11
29.6538
 21
54.8149
  0
LINE
  8
0
 10
29.6538
 20
54.8149
 11
28.9369
 21
55.3262
  0
LINE
  8
0
 10
28.9369
 20
55.3262
 11
28.2113
 21
55.8249
  0
LINE
  8
0
 10
28.2113
 20
55.8249
 11
27.477
 21
56.3109
  0
LINE
  8
0
 10
27.477
 20
56.3109
 11
26.7344
 21
56.784
  0
LINE
  8
0
 10
26.7344
 20
56.784
 11
25.9837
 21
57.2441
  0
LINE
  8
0
 10
25.9837
 20
57.2441
 11
25.225
 21
57.691
  0
LINE
  8
0
 10
25.225
 20
57.691
 11
24.4586
 21
58.1246
  0
LINE
  8
0
 10
24.4586
 20
58.1246
 11
23.6848
 21
58.5447
  0
LINE
  8
0
 10
23.6848
 20
58.5447
 11
22.9038
 21
58.9513
  0
LINE
  8
0
 10
22.9038
 20
58.9513
 11
22.1158
 21
59.3441
  0
LINE
  8
0
 10
22.1158
 20
59.3441
 11
21.3211
 21
59.7232
  0
LINE
  8
0
 10
21.3211
 20
59.7232
 11
20.5199
 21
60.0884
  0
LINE
  8
0
 10
20.5199
 20
60.0884
 11
19.7124
 21
60.4395
  0
LINE
  8
0
 10
19.7124
 20
60.4395
 11
19
 21
60.7345
  0
LINE
  8
0
 10
19
 20
60.7345
 11
19
 21
73.45
  0
LINE
  8
0
 10
19
 20
73.45
 11
-19
 21
73.45
  0
LINE
  8
0
 10
-19
 20
73.45
 11
-19
 21
60.7345
  0
LINE
  8
0
 10
-19
 20
60.7345
 11
-19.7124
 21
60.4395
  0
LINE
  8
0
 10
-19.7124
 20
60.4395
 11
-20.5199
 21
60.0884
  0
LINE
  8
0
 10
-20.5199
 20
60.0884
 11
-21.3211
 21
59.7232
  0
LINE
  8
0
 10
-21.3211
 20
59.7232
 11
-22.1158
 21
59.3441
  0
LINE
  8
0
 10
-22.1158
 20
59.3441
 11
-22.9038
 21
58.9513
  0
LINE
  8
0
 10
-22.9038
 20
58.9513
 11
-23.6848
 21
58.5447
  0
LINE
  8
0
 10
-23.6848
 20
58.5447
 11
-24.4586
 21
58.1246
  0
LINE
  8
0
 10
-24.4586
 20
58.1246
 11
-25.225
 21
57.691
  0
LINE
  8
0
 10
-25.225
 20
57.691
 11
-25.9837
 21
57.2441
  0
LINE
  8
0
 10
-25.9837
 20
57.2441
 11
-26.7344
 21
56.784
  0
LINE
  8
0
 10
-26.7344
 20
56.784
 11
-27.477
 21
56.3109
  0
LINE
  8
0
 10
-27.477
 20
56.3109
 11
-28.2113
 21
55.8249
  0
LINE
  8
0
 10
-28.2113
 20
55.8249
 11
-28.9369
 21
55.3262
  0
LINE
  8
0
 10
-28.9369
 20
55.3262
 11
-29.6538
 21
54.8149
  0
LINE
  8
0
 10
-29.6538
 20
54.8149
 11
-30.3616
 21
54.2912
  0
LINE
  8
0
 10
-30.3616
 20
54.2912
 11
-31.0601
 21
53.7551
  0
LINE
  8
0
 10
-31.0601
 20
53.7551
 11
-31.7492
 21
53.207
  0
LINE
  8
0
 10
-31.7492
 20
53.207
 11
-32.4286
 21
52.6469
  0
LINE
  8
0
 10
-32.4286
 20
52.6469
 11
-33.0982
 21
52.0751
  0
LINE
  8
0
 10
-33.0982
 20
52.0751
 11
-33.7576
 21
51.4917
  0
LINE
  8
0
 10
-33.7576
 20
51.4917
 11
-34.4068
 21
50.8968
  0
LINE
  8
0
 10
-34.4068
 20
50.8968
 11
-35.0455
 21
50.2907
  0
LINE
  8
0
 10
-35.0455
 20
50.2907
 11
-35.6735
 21
49.6735
  0
LINE
  8
0
 10
-35.6735
 20
49.6735
 11
-36.2907
 21
49.0455
  0
LINE
  8
0
 10
-36.2907
 20
49.0455
 11
-36.8968
 21
48.4068
  0
LINE
  8
0
 10
-36.8968
 20
48.4068
 11
-37.4917
 21
47.7576
  0
LINE
  8
0
 10
-37.4917
 20
47.7576
 11
-38.0751
 21
47.0982
  0
LINE
  8
0
 10
-38.0751
 20
47.0982
 11
-38.6469
 21
46.4286
  0
LINE
  8
0
 10
-38.6469
 20
46.4286
 11
-39.207
 21
45.7492
  0
LINE
  8
0
 10
-39.207
 20
45.7492
 11
-39.7551
 21
45.0601
  0
LINE
  8
0
 10
-39.7551
 20
45.0601
 11
-40.2912
 21
44.3616
  0
LINE
  8
0
 10
-40.2912
 20
44.3616
 11
-40.8149
 21
43.6538
  0
LINE
  8
0
 10
-40.8149
 20
43.6538
 11
-41.3262
 21
42.9369
  0
LINE
  8
0
 10
-41.3262
 20
42.9369
 11
-41.8249
 21
42.2113
  0
LINE
  8
0
 10
-41.8249
 20
42.2113
 11
-42.3109
 21
41.477
  0
LINE
  8
0
 10
-42.3109
 20
41.477
 11
-42.784
 21
40.7344
  0
LINE
  8
0
 10
-42.784
 20
40.7344
 11
-43.2441
 21
39.9837
  0
LINE
  8
0
 10
-43.2441
 20
39.9837
 11
-43.691
 21
39.225
  0
LINE
  8
0
 10
-43.691
 20
39.225
 11
-44.1246
 21
38.4586
  0
LINE
  8
0
 10
-44.1246
 20
38.4586
 11
-44.5447
 21
37.6848
  0
LINE
  8
0
 10
-44.5447
 20
37.6848
 11
-44.9513
 21
36.9038
  0
LINE
  8
0
 10
-44.9513
 20
36.9038
 11
-45.3441
 21
36.1158
  0
LINE
  8
0
 10
-45.3441
 20
36.1158
 11
-45.7232
 21
35.3211
  0
LINE
  8
0
 10
-45.7232
 20
35.3211
 11
-46.0884
 21
34.5199
  0
LINE
  8
0
 10
-46.0884
 20
34.5199
 11
-46.4395
 21
33.7124
  0
LINE
  8
0
 10
-46.4395
 20
33.7124
 11
-46.7764
 21
32.8989
  0
LINE
  8
0
 10
-46.7764
 20
32.8989
 11
-47.0991
 21
32.0797
  0
LINE
  8
0
 10
-47.0991
 20
32.0797
 11
-47.4075
 21
31.2549
  0
LINE
  8
0
 10
-47.4075
 20
31.2549
 11
-47.7014
 21
30.4249
  0
LINE
  8
0
 10
-47.7014
 20
30.4249
 11
-47.9808
 21
29.5899
  0
LINE
  8
0
 10
-47.9808
 20
29.5899
 11
-48.2456
 21
28.7502
  0
LINE
  8
0
 10
-48.2456
 20
28.7502
 11
-48.4957
 21
27.9059
  0
LINE
  8
0
 10
-48.4957
 20
27.9059
 11
-48.731
 21
27.0574
  0
LINE
  8
0
 10
-48.731
 20
27.0574
 11
-48.9514
 21
26.205
  0
LINE
  8
0
 10
-48.9514
 20
26.205
 11
-49.157
 21
25.3488
  0
LINE
  8
0
 10
-49.157
 20
25.3488
 11
-49.3475
 21
24.4891
  0
LINE
  8
0
 10
-49.3475
 20
24.4891
 11
-49.5231
 21
23.6263
  0
LINE
  8
0
 10
-49.5231
 20
23.6263
 11
-49.6835
 21
22.7605
  0
LINE
  8
0
 10
-49.6835
 20
22.7605
 11
-49.8289
 21
21.8921
  0
LINE
  8
0
 10
-49.8289
 20
21.8921
 11
-49.8875
 21
21.5
  0
LINE
  8
0
 10
-49.8875
 20
21.5
 11
-63.45
 21
21.5
  0
LINE
  8
0
 10
-63.45
 20
21.5
 11
-63.45
 21
14
  0
LINE
  8
0
 10
-63.45
 20
14
 11
-44.45
 21
14
  0
LINE
  8
0
 10
-44.45
 20
14
 11
-44.4432
 21
14.7758
  0
LINE
  8
0
 10
19
 20
-60.7345
 11
19.7124
 21
-60.4395
  0
LINE
  8
0
 10
19.7124
 20
-60.4395
 11
20.5199
 21
-60.0884
  0
LINE
  8
0
 10
20.5199
 20
-60.0884
 11
21.3211
 21
-59.7232
  0
LINE
  8
0
 10
21.3211
 20
-59.7232
 11
22.1158
 21
-59.3441
  0
LINE
  8
0
 10
22.1158
 20
-59.3441
 11
22.9038
 21
-58.9513
  0
LINE
  8
0
 10
22.9038
 20
-58.9513
 11
23.6848
 21
-58.5447
  0
LINE
  8
0
 10
23.6848
 20
-58.5447
 11
24.4586
 21
-58.1246
  0
LINE
  8
0
 10
24.4586
 20
-58.1246
 11
25.225
 21
-57.691
  0
LINE
  8
0
 10
25.225
 20
-57.691
 11
25.9837
 21
-57.2441
  0
LINE
  8
0
 10
25.9837
 20
-57.2441
 11
26.7344
 21
-56.784
  0
LINE
  8
0
 10
26.7344
 20
-56.784
 11
27.477
 21
-56.3109
  0
LINE
  8
0
 10
27.477
 20
-56.3109
 11
28.2113
 21
-55.8249
  0
LINE
  8
0
 10
28.2113
 20
-55.8249
 11
28.9369
 21
-55.3262
  0
LINE
  8
0
 10
28.9369
 20
-55.3262
 11
29.6538
 21
-54.8149
  0
LINE
  8
0
 10
29.6538
 20
-54.8149
 11
30.3616
 21
-54.2912
  0
LINE
  8
0
 10
30.3616
 20
-54.2912
 11
31.0601
 21
-53.7551
  0
LINE
  8
0
 10
31.0601
 20
-53.7551
 11
31.7492
 21
-53.207
  0
LINE
  8
0
 10
31.7492
 20
-53.207
 11
32.4286
 21
-52.6469
  0
LINE
  8
0
 10
32.4286
 20
-52.6469
 11
33.0982
 21
-52.0751
  0
LINE
  8
0
 10
33.0982
 20
-52.0751
 11
33.7576
 21
-51.4917
  0
LINE
  8
0
 10
33.7576
 20
-51.4917
 11
34.4068
 21
-50.8968
  0
LINE
  8
0
 10
34.4068
 20
-50.8968
 11
35.0455
 21
-50.2907
  0
LINE
  8
0
 10
35.0455
 20
-50.2907
 11
35.6735
 21
-49.6735
  0
LINE
  8
0
 10
35.6735
 20
-49.6735
 11
36.2907
 21
-49.0455
  0
LINE
  8
0
 10
36.2907
 20
-49.0455
 11
36.8968
 21
-48.4068
  0
LINE
  8
0
 10
36.8968
 20
-48.4068
 11
37.4917
 21
-47.7576
  0
LINE
  8
0
 10
37.4917
 20
-47.7576
 11
38.0751
 21
-47.0982
  0
LINE
  8
0
 10
38.0751
 20
-47.0982
 11
38.6469
 21
-46.4286
  0
LINE
  8
0
 10
38.6469
 20
-46.4286
 11
39.207
 21
-45.7492
  0
LINE
  8
0
 10
39.207
 20
-45.7492
 11
39.7551
 21
-45.0601
  0
LINE
  8
0
 10
39.7551
 20
-45.0601
 11
40.2912
 21
-44.3616
  0
LINE
  8
0
 10
40.2912
 20
-44.3616
 11
40.8149
 21
-43.6538
  0
LINE
  8
0
 10
40.8149
 20
-43.6538
 11
41.3262
 21
-42.9369
  0
LINE
  8
0
 10
41.3262
 20
-42.9369
 11
41.8249
 21
-42.2113
  0
LINE
  8
0
 10
41.8249
 20
-42.2113
 11
42.3109
 21
-41.477
  0
LINE
  8
0
 10
42.3109
 20
-41.477
 11
42.784
 21
-40.7344
  0
LINE
  8
0
 10
42.784
 20
-40.7344
 11
43.2441
 21
-39.9837
  0
LINE
  8
0
 10
43.2441
 20
-39.9837
 11
43.691
 21
-39.225
  0
LINE
  8
0
 10
43.691
 20
-39.225
 11
44.1246
 21
-38.4586
  0
LINE
  8
0
 10
44.1246
 20
-38.4586
 11
44.5447
 21
-37.6848
  0
LINE
  8
0
 10
44.5447
 20
-37.6848
 11
44.9513
 21
-36.9038
  0
LINE
  8
0
 10
44.9513
 20
-36.9038
 11
45.3441
 21
-36.1158
  0
LINE
  8
0
 10
45.3441
 20
-36.1158
 11
45.7232
 21
-35.3211
  0
LINE
  8
0
 10
45.7232
 20
-35.3211
 11
46.0884
 21
-34.5199
  0
LINE
  8
0
 10
46.0884
 20
-34.5199
 11
46.4395
 21
-33.7124
  0
LINE
  8
0
 10
46.4395
 20
-33.7124
 11
46.7764
 21
-32.8989
  0
LINE
  8
0
 10
46.7764
 20
-32.8989
 11
47.0991
 21
-32.0797
  0
LINE
  8
0
 10
47.0991
 20
-32.0797
 11
47.4075
 21
-31.2549
  0
LINE
  8
0
 10
47.4075
 20
-31.2549
 11
47.7014
 21
-30.4249
  0
LINE
  8
0
 10
47.7014
 20
-30.4249
 11
47.9808
 21
-29.5899
  0
LINE
  8
0
 10
47.9808
 20
-29.5899
 11
48.2456
 21
-28.7502
  0
LINE
  8
0
 10
48.2456
 20
-28.7502
 11
48.4957
 21
-27.9059
  0
LINE
  8
0
 10
48.4957
 20
-27.9059
 11
48.731
 21
-27.0574
  0
LINE
  8
0
 10
48.731
 20
-27.0574
 11
48.9514
 21
-26.205
  0
LINE
  8
0
 10
48.9514
 20
-26.205
 11
49.157
 21
-25.3488
  0
LINE
  8
0
 10
49.157
 20
-25.3488
 11
49.3475
 21
-24.4891
  0
LINE
  8
0
 10
49.3475
 20
-24.4891
 11
49.5231
 21
-23.6263
  0
LINE
  8
0
 10
49.5231
 20
-23.6263
 11
49.6835
 21
-22.7605
  0
LINE
  8
0
 10
49.6835
 20
-22.7605
 11
49.8289
 21
-21.8921
  0
LINE
  8
0
 10
49.8289
 20
-21.8921
 11
49.8875
 21
-21.5
  0
LINE
  8
0
 10
49.8875
 20
-21.5
 11
63.45
 21
-21.5
  0
LINE
  8
0
 10
63.45
 20
-21.5
 11
63.45
 21
-14
  0
LINE
  8
0
 10
63.45
 20
-14
 11
44.45
 21
-14
  0
LINE
  8
0
 10
44.45
 20
-14
 11
44.4432
 21
-14.7758
  0
LINE
  8
0
 10
44.4432
 20
-14.7758
 11
44.4229
 21
-15.5513
  0
LINE
  8
0
 10
44.4229
 20
-15.5513
 11
44.3891
 21
-16.3263
  0
LINE
  8
0
 10
44.3891
 20
-16.3263
 11
44.3417
 21
-17.1007
  0
LINE
  8
0
 10
44.3417
 20
-17.1007
 11
44.2809
 21
-17.8741
  0
LINE
  8
0
 10
44.2809
 20
-17.8741
 11
44.2065
 21
-18.6463
  0
LINE
  8
0
 10
44.2065
 20
-18.6463
 11
44.1187
 21
-19.4171
  0
LINE
  8
0
 10
44.1187
 20
-19.4171
 11
44.0174
 21
-20.1862
  0
LINE
  8
0
 10
44.0174
 20
-20.1862
 11
43.9027
 21
-20.9535
  0
LINE
  8
0
 10
43.9027
 20
-20.9535
 11
43.7747
 21
-21.7187
  0
LINE
  8
0
 10
43.7747
 20
-21.7187
 11
43.6333
 21
-22.4815
  0
LINE
  8
0
 10
43.6333
 20
-22.4815
 11
43.4787
 21
-23.2417
  0
LINE
  8
0
 10
43.4787
 20
-23.2417
 11
43.3107
 21
-23.9991
  0
LINE
  8
0
 10
43.3107
 20
-23.9991
 11
43.1296
 21
-24.7534
  0
LINE
  8
0
 10
43.1296
 20
-24.7534
 11
42.9354
 21
-25.5045
  0
LINE
  8
0
 10
42.9354
 20
-25.5045
 11
42.7281
 21
-26.2521
  0
LINE
  8
0
 10
42.7281
 20
-26.2521
 11
42.5077
 21
-26.9959
  0
LINE
  8
0
 10
42.5077
 20
-26.9959
 11
42.2745
 21
-27.7358
  0
LINE
  8
0
 10
42.2745
 20
-27.7358
 11
42.0283
 21
-28.4715
  0
LINE
  8
0
 10
42.0283
 20
-28.4715
 11
41.7693
 21
-29.2028
  0
LINE
  8
0
 10
41.7693
 20
-29.2028
 11
41.4977
 21
-29.9294
  0
LINE
  8
0
 10
41.4977
 20
-29.9294
 11
41.2133
 21
-30.6513
  0
LINE
  8
0
 10
41.2133
 20
-30.6513
 11
40.9164
 21
-31.368
  0
LINE
  8
0
 10
40.9164
 20
-31.368
 11
40.6071
 21
-32.0794
  0
LINE
  8
0
 10
40.6071
 20
-32.0794
 11
40.2854
 21
-32.7854
  0
LINE
  8
0
 10
40.2854
 20
-32.7854
 11
39.9514
 21
-33.4856
  0
LINE
  8
0
 10
39.9514
 20
-33.4856
 11
39.6052
 21
-34.1799
  0
LINE
  8
0
 10
39.6052
 20
-34.1799
 11
39.247
 21
-34.868
  0
LINE
  8
0
 10
39.247
 20
-34.868
 11
38.8768
 21
-35.5498
  0
LINE
  8
0
 10
38.8768
 20
-35.5498
 11
38.4948
 21
-36.225
  0
LINE
  8
0
 10
38.4948
 20
-36.225
 11
38.1011
 21
-36.8934
  0
LINE
  8
0
 10
38.1011
 20
-36.8934
 11
37.6957
 21
-37.5549
  0
LINE
  8
0
 10
37.6957
 20
-37.5549
 11
37.2789
 21
-38.2092
  0
LINE
  8
0
 10
37.2789
 20
-38.2092
 11
36.8507
 21
-38.8561
  0
LINE
  8
0
 10
36.8507
 20
-38.8561
 11
36.4113
 21
-39.4955
  0
LINE
  8
0
 10
36.4113
 20
-39.4955
 11
35.9608
 21
-40.127
  0
LINE
  8
0
 10
35.9608
 20
-40.127
 11
35.4993
 21
-40.7507
  0
LINE
  8
0
 10
35.4993
 20
-40.7507
 11
35.0271
 21
-41.3661
  0
LINE
  8
0
 10
35.0271
 20
-41.3661
 11
34.5441
 21
-41.9733
  0
LINE
  8
0
 10
34.5441
 20
-41.9733
 11
34.0507
 21
-42.5719
  0
LINE
  8
0
 10
34.0507
 20
-42.5719
 11
33.5468
 21
-43.1618
  0
LINE
  8
0
 10
33.5468
 20
-43.1618
 11
33.0328
 21
-43.7428
  0
LINE
  8
0
 10
33.0328
 20
-43.7428
 11
32.5087
 21
-44.3148
  0
LINE
  8
0
 10
32.5087
 20
-44.3148
 11
31.9746
 21
-44.8776
  0
LINE
  8
0
 10
31.9746
 20
-44.8776
 11
31.4309
 21
-45.4309
  0
LINE
  8
0
 10
31.4309
 20
-45.4309
 11
30.8776
 21
-45.9747
  0
LINE
  8
0
 10
30.8776
 20
-45.9747
 11
30.3148
 21
-46.5087
  0
LINE
  8
0
 10
30.3148
 20
-46.5087
 11
29.7428
 21
-47.0328
  0
LINE
  8
0
 10
29.7428
 20
-47.0328
 11
29.1618
 21
-47.5468
  0
LINE
  8
0
 10
29.1618
 20
-47.5468
 11
28.5719
 21
-48.0507
  0
LINE
  8
0
 10
28.5719
 20
-48.0507
 11
27.9733
 21
-48.5441
  0
LINE
  8
0
 10
27.9733
 20
-48.5441
 11
27.3661
 21
-49.0271
  0
LINE
  8
0
 10
27.3661
 20
-49.0271
 11
26.7507
 21
-49.4993
  0
LINE
  8
0
 10
26.7507
 20
-49.4993
 11
26.127
 21
-49.9608
  0
LINE
  8
0
 10
26.127
 20
-49.9608
 11
25.4955
 21
-50.4113
  0
LINE
  8
0
 10
25.4955
 20
-50.4113
 11
24.8561
 21
-50.8507
  0
LINE
  8
0
 10
24.8561
 20
-50.8507
 11
24.2092
 21
-51.2789
  0
LINE
  8
0
 10
24.2092
 20
-51.2789
 11
23.5549
 21
-51.6957
  0
LINE
  8
0
 10
23.5549
 20
-51.6957
 11
22.8934
 21
-52.1011
  0
LINE
  8
0
 10
22.8934
 20
-52.1011
 11
22.225
 21
-52.4948
  0
LINE
  8
0
 10
22.225
 20
-52.4948
 11
21.5498
 21
-52.8768
  0
LINE
  8
0
 10
21.5498
 20
-52.8768
 11
20.868
 21
-53.247
  0
LINE
  8
0
 10
20.868
 20
-53.247
 11
20.1799
 21
-53.6052
  0
LINE
  8
0
 10
20.1799
 20
-53.6052
 11
19.4856
 21
-53.9514
  0
LINE
  8
0
 10
19.4856
 20
-53.9514
 11
18.7854
 21
-54.2854
  0
LINE
  8
0
 10
18.7854
 20
-54.2854
 11
18.0794
 21
-54.6071
  0
LINE
  8
0
 10
18.0794
 20
-54.6071
 11
17.368
 21
-54.9164
  0
LINE
  8
0
 10
17.368
 20
-54.9164
 11
16.6513
 21
-55.2133
  0
LINE
  8
0
 10
16.6513
 20
-55.2133
 11
15.9294
 21
-55.4977
  0
LINE
  8
0
 10
15.9294
 20
-55.4977
 11
15.2028
 21
-55.7693
  0
LINE
  8
0
 10
15.2028
 20
-55.7693
 11
14.4715
 21
-56.0283
  0
LINE
  8
0
 10
14.4715
 20
-56.0283
 11
13.7358
 21
-56.2745
  0
LINE
  8
0
 10
13.7358
 20
-56.2745
 11
12.9959
 21
-56.5077
  0
LINE
  8
0
 10
12.9959
 20
-56.5077
 11
12.2521
 21
-56.7281
  0
LINE
  8
0
 10
12.2521
 20
-56.7281
 11
11.5045
 21
-56.9354
  0
LINE
  8
0
 10
11.5045
 20
-56.9354
 11
10.7534
 21
-57.1296
  0
LINE
  8
0
 10
10.7534
 20
-57.1296
 11
9.99907
 21
-57.3107
  0
LINE
  8
0
 10
9.99907
 20
-57.3107
 11
9.24167
 21
-57.4787
  0
LINE
  8
0
 10
9.24167
 20
-57.4787
 11
8.48145
 21
-57.6333
  0
LINE
  8
0
 10
8.48145
 20
-57.6333
 11
7.71866
 21
-57.7747
  0
LINE
  8
0
 10
7.71866
 20
-57.7747
 11
6.95351
 21
-57.9027
  0
LINE
  8
0
 10
6.95351
 20
-57.9027
 11
6.18623
 21
-58.0174
  0
LINE
  8
0
 10
6.18623
 20
-58.0174
 11
5.41708
 21
-58.1187
  0
LINE
  8
0
 10
5.41708
 20
-58.1187
 11
4.64629
 21
-58.2065
  0
LINE
  8
0
 10
4.64629
 20
-58.2065
 11
3.87407
 21
-58.2809
  0
LINE
  8
0
 10
3.87407
 20
-58.2809
 11
3.10066
 21
-58.3417
  0
LINE
  8
0
 10
3.10066
 20
-58.3417
 11
2.32632
 21
-58.3891
  0
LINE
  8
0
 10
2.32632
 20
-58.3891
 11
1.55127
 21
-58.4229
  0
LINE
  8
0
 10
1.55127
 20
-58.4229
 11
0.775757
 21
-58.4432
  0
LINE
  8
0
 10
0.775757
 20
-58.4432
 11
0
 21
-58.45
  0
LINE
  8
0
 10
0
 20
-58.45
 11
-0.775757
 21
-58.4432
  0
LINE
  8
0
 10
-0.775757
 20
-58.4432
 11
-1.55127
 21
-58.4229
  0
LINE
  8
0
 10
-1.55127
 20
-58.4229
 11
-2.32632
 21
-58.3891
  0
LINE
  8
0
 10
-2.32632
 20
-58.3891
 11
-3.10066
 21
-58.3417
  0
LINE
  8
0
 10
-3.10066
 20
-58.3417
 11
-3.87407
 21
-58.2809
  0
LINE
  8
0
 10
-3.87407
 20
-58.2809
 11
-4.64629
 21
-58.2065
  0
LINE
  8
0
 10
-4.64629
 20
-58.2065
 11
-5.41708
 21
-58.1187
  0
LINE
  8
0
 10
-5.41708
 20
-58.1187
 11
-6.18623
 21
-58.0174
  0
LINE
  8
0
 10
-6.18623
 20
-58.0174
 11
-6.95351
 21
-57.9027
  0
LINE
  8
0
 10
-6.95351
 20
-57.9027
 11
-7.71866
 21
-57.7747
  0
LINE
  8
0
 10
-7.71866
 20
-57.7747
 11
-8.48145
 21
-57.6333
  0
LINE
  8
0
 10
-8.48145
 20
-57.6333
 11
-9.24167
 21
-57.4787
  0
LINE
  8
0
 10
-9.24167
 20
-57.4787
 11
-9.99907
 21
-57.3107
  0
LINE
  8
0
 10
-9.99907
 20
-57.3107
 11
-10.7534
 21
-57.1296
  0
LINE
  8
0
 10
-10.7534
 20
-57.1296
 11
-11.5045
 21
-56.9354
  0
LINE
  8
0
 10
-11.5045
 20
-56.9354
 11
-12.2521
 21
-56.7281
  0
LINE
  8
0
 10
-12.2521
 20
-56.7281
 11
-12.9959
 21
-56.5077
  0
LINE
  8
0
 10
-12.9959
 20
-56.5077
 11
-13.7358
 21
-56.2745
  0
LINE
  8
0
 10
-13.7358
 20
-56.2745
 11
-14.4715
 21
-56.0283
  0
LINE
  8
0
 10
-14.4715
 20
-56.0283
 11
-15.2028
 21
-55.7693
  0
LINE
  8
0
 10
-15.2028
 20
-55.7693
 11
-15.9294
 21
-55.4977
  0
LINE
  8
0
 10
-15.9294
 20
-55.4977
 11
-16.6513
 21
-55.2133
  0
LINE
  8
0
 10
-16.6513
 20
-55.2133
 11
-17.368
 21
-54.9164
  0
LINE
  8
0
 10
-17.368
 20
-54.9164
 11
-18.0794
 21
-54.6071
  0
LINE
  8
0
 10
-18.0794
 20
-54.6071
 11
-18.7854
 21
-54.2854
  0
LINE
  8
0
 10
-18.7854
 20
-54.2854
 11
-19.4856
 21
-53.9514
  0
LINE
  8
0
 10
-19.4856
 20
-53.9514
 11
-20.1799
 21
-53.6052
  0
LINE
  8
0
 10
-20.1799
 20
-53.6052
 11
-20.868
 21
-53.247
  0
LINE
  8
0
 10
-20.868
 20
-53.247
 11
-21.5498
 21
-52.8768
  0
LINE
  8
0
 10
-21.5498
 20
-52.8768
 11
-22.225
 21
-52.4948
  0
LINE
  8
0
 10
-22.225
 20
-52.4948
 11
-22.8934
 21
-52.1011
  0
LINE
  8
0
 10
-22.8934
 20
-52.1011
 11
-23.5549
 21
-51.6957
  0
LINE
  8
0
 10
-23.5549
 20
-51.6957
 11
-24.2092
 21
-51.2789
  0
LINE
  8
0
 10
-24.2092
 20
-51.2789
 11
-24.8561
 21
-50.8507
  0
LINE
  8
0
 10
-24.8561
 20
-50.8507
 11
-25.4955
 21
-50.4113
  0
LINE
  8
0
 10
-25.4955
 20
-50.4113
 11
-26.127
 21
-49.9608
  0
LINE
  8
0
 10
-26.127
 20
-49.9608
 11
-26.7507
 21
-49.4993
  0
LINE
  8
0
 10
-26.7507
 20
-49.4993
 11
-27.3661
 21
-49.0271
  0
LINE
  8
0
 10
-27.3661
 20
-49.0271
 11
-27.9733
 21
-48.5441
  0
LINE
  8
0
 10
-27.9733
 20
-48.5441
 11
-28.5719
 21
-48.0507
  0
LINE
  8
0
 10
-28.5719
 20
-48.0507
 11
-29.1618
 21
-47.5468
  0
LINE
  8
0
 10
-29.1618
 20
-47.5468
 11
-29.7428
 21
-47.0328
  0
LINE
  8
0
 10
-29.7428
 20
-47.0328
 11
-30.3148
 21
-46.5087
  0
LINE
  8
0
 10
-30.3148
 20
-46.5087
 11
-30.8776
 21
-45.9747
  0
LINE
  8
0
 10
-30.8776
 20
-45.9747
 11
-31.4309
 21
-45.4309
  0
LINE
  8
0
 10
-31.4309
 20
-45.4309
 11
-31.9746
 21
-44.8776
  0
LINE
  8
0
 10
-31.9746
 20
-44.8776
 11
-32.5087
 21
-44.3148
  0
LINE
  8
0
 10
-32.5087
 20
-44.3148
 11
-33.0328
 21
-43.7428
  0
LINE
  8
0
 10
-33.0328
 20
-43.7428
 11
-33.5468
 21
-43.1618
  0
LINE
  8
0
 10
-33.5468
 20
-43.1618
 11
-34.0507
 21
-42.5719
  0
LINE
  8
0
 10
-34.0507
 20
-42.5719
 11
-34.5441
 21
-41.9733
  0
LINE
  8
0
 10
-34.5441
 20
-41.9733
 11
-35.0271
 21
-41.3661
  0
LINE
  8
0
 10
-35.0271
 20
-41.3661
 11
-35.4993
 21
-40.7507
  0
LINE
  8
0
 10
-35.4993
 20
-40.7507
 11
-35.9608
 21
-40.127
  0
LINE
  8
0
 10
-35.9608
 20
-40.127
 11
-36.4113
 21
-39.4955
  0
LINE
  8
0
 10
-36.4113
 20
-39.4955
 11
-36.8507
 21
-38.8561
  0
LINE
  8
0
 10
-36.8507
 20
-38.8561
 11
-37.2789
 21
-38.2092
  0
LINE
  8
0
 10
-37.2789
 20
-38.2092
 11
-37.6957
 21
-37.5549
  0
LINE
  8
0
 10
-37.6957
 20
-37.5549
 11
-38.1011
 21
-36.8934
  0
LINE
  8
0
 10
-38.1011
 20
-36.8934
 11
-38.4948
 21
-36.225
  0
LINE
  8
0
 10
-38.4948
 20
-36.225
 11
-38.8768
 21
-35.5498
  0
LINE
  8
0
 10
-38.8768
 20
-35.5498
 11
-39.247
 21
-34.868
  0
LINE
  8
0
 10
-39.247
 20
-34.868
 11
-39.6052
 21
-34.1799
  0
LINE
  8
0
 10
-39.6052
 20
-34.1799
 11
-39.9514
 21
-33.4856
  0
LINE
  8
0
 10
-39.9514
 20
-33.4856
 11
-40.2854
 21
-32.7854
  0
LINE
  8
0
 10
-40.2854
 20
-32.7854
 11
-40.6071
 21
-32.0794
  0
LINE
  8
0
 10
-40.6071
 20
-32.0794
 11
-40.9164
 21
-31.368
  0
LINE
  8
0
 10
-40.9164
 20
-31.368
 11
-41.2133
 21
-30.6513
  0
LINE
  8
0
 10
-41.2133
 20
-30.6513
 11
-41.4977
 21
-29.9294
  0
LINE
  8
0
 10
-41.4977
 20
-29.9294
 11
-41.7693
 21
-29.2028
  0
LINE
  8
0
 10
-41.7693
 20
-29.2028
 11
-42.0283
 21
-28.4715
  0
LINE
  8
0
 10
-42.0283
 20
-28.4715
 11
-42.2745
 21
-27.7358
  0
LINE
  8
0
 10
-42.2745
 20
-27.7358
 11
-42.5077
 21
-26.9959
  0
LINE
  8
0
 10
-42.5077
 20
-26.9959
 11
-42.7281
 21
-26.2521
  0
LINE
  8
0
 10
-42.7281
 20
-26.2521
 11
-42.9354
 21
-25.5045
  0
LINE
  8
0
 10
-42.9354
 20
-25.5045
 11
-43.1296
 21
-24.7534
  0
LINE
  8
0
 10
-43.1296
 20
-24.7534
 11
-43.3107
 21
-23.9991
  0
LINE
  8
0
 10
-43.3107
 20
-23.9991
 11
-43.4787
 21
-23.2417
  0
LINE
  8
0
 10
-43.4787
 20
-23.2417
 11
-43.6333
 21
-22.4815
  0
LINE
  8
0
 10
-43.6333
 20
-22.4815
 11
-43.7747
 21
-21.7187
  0
LINE
  8
0
 10
-43.7747
 20
-21.7187
 11
-43.9027
 21
-20.9535
  0
LINE
  8
0
 10
-43.9027
 20
-20.9535
 11
-44.0174
 21
-20.1862
  0
LINE
  8
0
 10
-44.0174
 20
-20.1862
 11
-44.1187
 21
-19.4171
  0
LINE
  8
0
 10
-44.1187
 20
-19.4171
 11
-44.2065
 21
-18.6463
  0
LINE
  8
0
 10
-44.2065
 20
-18.6463
 11
-44.2809
 21
-17.8741
  0
LINE
  8
0
 10
-44.2809
 20
-17.8741
 11
-44.3417
 21
-17.1007
  0
LINE
  8
0
 10
-44.3417
 20
-17.1007
 11
-44.3891
 21
-16.3263
  0
LINE
  8
0
 10
-44.3891
 20
-16.3263
 11
-44.4229
 21
-15.5513
  0
LINE
  8
0
 10
-44.4229
 20
-15.5513
 11
-44.4432
 21
-14.7758
  0
LINE
  8
0
 10
-44.4432
 20
-14.7758
 11
-44.45
 21
-14
  0
LINE
  8
0
 10
-44.45
 20
-14
 11
-63.45
 21
-14
  0
LINE
  8
0
 10
-63.45
 20
-14
 11
-63.45
 21
-21.5
  0
LINE
  8
0
 10
-63.45
 20
-21.5
 11
-49.8875
 21
-21.5
  0
LINE
  8
0
 10
-49.8875
 20
-21.5
 11
-49.8289
 21
-21.8921
  0
LINE
  8
0
 10
-49.8289
 20
-21.8921
 11
-49.6835
 21
-22.7605
  0
LINE
  8
0
 10
-49.6835
 20
-22.7605
 11
-49.5231
 21
-23.6263
  0
LINE
  8
0
 10
-49.5231
 20
-23.6263
 11
-49.3475
 21
-24.4891
  0
LINE
  8
0
 10
-49.3475
 20
-24.4891
 11
-49.157
 21
-25.3488
  0
LINE
  8
0
 10
-49.157
 20
-25.3488
 11
-48.9514
 21
-26.205
  0
LINE
  8
0
 10
-48.9514
 20
-26.205
 11
-48.731
 21
-27.0574
  0
LINE
  8
0
 10
-48.731
 20
-27.0574
 11
-48.4957
 21
-27.9059
  0
LINE
  8
0
 10
-48.4957
 20
-27.9059
 11
-48.2456
 21
-28.7502
  0
LINE
  8
0
 10
-48.2456
 20
-28.7502
 11
-47.9808
 21
-29.5899
  0
LINE
  8
0
 10
-47.9808
 20
-29.5899
 11
-47.7014
 21
-30.4249
  0
LINE
  8
0
 10
-47.7014
 20
-30.4249
 11
-47.4075
 21
-31.2549
  0
LINE
  8
0
 10
-47.4075
 20
-31.2549
 11
-47.0991
 21
-32.0797
  0
LINE
  8
0
 10
-47.0991
 20
-32.0797
 11
-46.7764
 21
-32.8989
  0
LINE
  8
0
 10
-46.7764
 20
-32.8989
 11
-46.4395
 21
-33.7124
  0
LINE
  8
0
 10
-46.4395
 20
-33.7124
 11
-46.0884
 21
-34.5199
  0
LINE
  8
0
 10
-46.0884
 20
-34.5199
 11
-45.7232
 21
-35.3211
  0
LINE
  8
0
 10
-45.7232
 20
-35.3211
 11
-45.3441
 21
-36.1158
  0
LINE
  8
0
 10
-45.3441
 20
-36.1158
 11
-44.9513
 21
-36.9038
  0
LINE
  8
0
 10
-44.9513
 20
-36.9038
 11
-44.5447
 21
-37.6848
  0
LINE
  8
0
 10
-44.5447
 20
-37.6848
 11
-44.1246
 21
-38.4586
  0
LINE
  8
0
 10
-44.1246
 20
-38.4586
 11
-43.691
 21
-39.225
  0
LINE
  8
0
 10
-43.691
 20
-39.225
 11
-43.2441
 21
-39.9837
  0
LINE
  8
0
 10
-43.2441
 20
-39.9837
 11
-42.784
 21
-40.7344
  0
LINE
  8
0
 10
-42.784
 20
-40.7344
 11
-42.3109
 21
-41.477
  0
LINE
  8
0
 10
-42.3109
 20
-41.477
 11
-41.8249
 21
-42.2113
  0
LINE
  8
0
 10
-41.8249
 20
-42.2113
 11
-41.3262
 21
-42.9369
  0
LINE
  8
0
 10
-41.3262
 20
-42.9369
 11
-40.8149
 21
-43.6538
  0
LINE
  8
0
 10
-40.8149
 20
-43.6538
 11
-40.2912
 21
-44.3616
  0
LINE
  8
0
 10
-40.2912
 20
-44.3616
 11
-39.7551
 21
-45.0601
  0
LINE
  8
0
 10
-39.7551
 20
-45.0601
 11
-39.207
 21
-45.7492
  0
LINE
  8
0
 10
-39.207
 20
-45.7492
 11
-38.6469
 21
-46.4286
  0
LINE
  8
0
 10
-38.6469
 20
-46.4286
 11
-38.0751
 21
-47.0982
  0
LINE
  8
0
 10
-38.0751
 20
-47.0982
 11
-37.4917
 21
-47.7576
  0
LINE
  8
0
 10
-37.4917
 20
-47.7576
 11
-36.8968
 21
-48.4068
  0
LINE
  8
0
 10
-36.8968
 20
-48.4068
 11
-36.2907
 21
-49.0455
  0
LINE
  8
0
 10
-36.2907
 20
-49.0455
 11
-35.6735
 21
-49.6735
  0
LINE
  8
0
 10
-35.6735
 20
-49.6735
 11
-35.0455
 21
-50.2907
  0
LINE
  8
0
 10
-35.0455
 20
-50.2907
 11
-34.4068
 21
-50.8968
  0
LINE
  8
0
 10
-34.4068
 20
-50.8968
 11
-33.7576
 21
-51.4917
  0
LINE
  8
0
 10
-33.7576
 20
-51.4917
 11
-33.0982
 21
-52.0751
  0
LINE
  8
0
 10
-33.0982
 20
-52.0751
 11
-32.4286
 21
-52.6469
  0
LINE
  8
0
 10
-32.4286
 20
-52.6469
 11
-31.7492
 21
-53.207
  0
LINE
  8
0
 10
-31.7492
 20
-53.207
 11
-31.0601
 21
-53.7551
  0
LINE
  8
0
 10
-31.0601
 20
-53.7551
 11
-30.3616
 21
-54.2912
  0
LINE
  8
0
 10
-30.3616
 20
-54.2912
 11
-29.6538
 21
-54.8149
  0
LINE
  8
0
 10
-29.6538
 20
-54.8149
 11
-28.9369
 21
-55.3262
  0
LINE
  8
0
 10
-28.9369
 20
-55.3262
 11
-28.2113
 21
-55.8249
  0
LINE
  8
0
 10
-28.2113
 20
-55.8249
 11
-27.477
 21
-56.3109
  0
LINE
  8
0
 10
-27.477
 20
-56.3109
 11
-26.7344
 21
-56.784
  0
LINE
  8
0
 10
-26.7344
 20
-56.784
 11
-25.9837
 21
-57.2441
  0
LINE
  8
0
 10
-25.9837
 20
-57.2441
 11
-25.225
 21
-57.691
  0
LINE
  8
0
 10
-25.225
 20
-57.691
 11
-24.4586
 21
-58.1246
  0
LINE
  8
0
 10
-24.4586
 20
-58.1246
 11
-23.6848
 21
-58.5447
  0
LINE
  8
0
 10
-23.6848
 20
-58.5447
 11
-22.9038
 21
-58.9513
  0
LINE
  8
0
 10
-22.9038
 20
-58.9513
 11
-22.1158
 21
-59.3441
  0
LINE
  8
0
 10
-22.1158
 20
-59.3441
 11
-21.3211
 21
-59.7232
  0
LINE
  8
0
 10
-21.3211
 20
-59.7232
 11
-20.5199
 21
-60.0884
  0
LINE
  8
0
 10
-20.5199
 20
-60.0884
 11
-19.7124
 21
-60.4395
  0
LINE
  8
0
 10
-19.7124
 20
-60.4395
 11
-19
 21
-60.7345
  0
LINE
  8
0
 10
-19
 20
-60.7345
 11
-19
 21
-73.45
  0
LINE
  8
0
 10
-19
 20
-73.45
 11
19
 21
-73.45
  0
LINE
  8
0
 10
19
 20
-73.45
 11
19
 21
-60.7345
  0
ENDSEC
  0
SECTION
  2
OBJECTS
  0
DICTIONARY
  0
ENDSEC
  0
EOF
